<?xml version="1.0" encoding="utf-8" standalone="no"?>
<!DOCTYPE svg PUBLIC "-//W3C//DTD SVG 1.1//EN"
  "http://www.w3.org/Graphics/SVG/1.1/DTD/svg11.dtd">
<!-- Created with matplotlib (https://matplotlib.org/) -->
<svg height="702pt" version="1.1" viewBox="0 0 1382.4 702" width="1382.4pt" xmlns="http://www.w3.org/2000/svg" xmlns:xlink="http://www.w3.org/1999/xlink">
 <metadata>
  <rdf:RDF xmlns:cc="http://creativecommons.org/ns#" xmlns:dc="http://purl.org/dc/elements/1.1/" xmlns:rdf="http://www.w3.org/1999/02/22-rdf-syntax-ns#">
   <cc:Work>
    <dc:type rdf:resource="http://purl.org/dc/dcmitype/StillImage"/>
    <dc:date>2023-11-18T16:03:10.121236</dc:date>
    <dc:format>image/svg+xml</dc:format>
    <dc:creator>
     <cc:Agent>
      <dc:title>Matplotlib v3.3.4, https://matplotlib.org/</dc:title>
     </cc:Agent>
    </dc:creator>
   </cc:Work>
  </rdf:RDF>
 </metadata>
 <defs>
  <style type="text/css">*{stroke-linecap:butt;stroke-linejoin:round;}</style>
 </defs>
 <g id="figure_1">
  <g id="patch_1">
   <path d="M 0 702 
L 1382.4 702 
L 1382.4 0 
L 0 0 
z
" style="fill:#ffffff;"/>
  </g>
  <g id="axes_1">
   <g id="patch_2">
    <path clip-path="url(#p81faf59973)" d="M 191.145205 492.099041 
L 1291.857534 492.099041 
L 1291.857534 455.40863 
L 191.145205 455.40863 
z
" style="fill:#ffa24b;opacity:0.8;stroke:#ffa24b;stroke-linejoin:miter;"/>
   </g>
   <g id="patch_3">
    <path clip-path="url(#p81faf59973)" d="M 191.145205 455.40863 
L 1291.857534 455.40863 
L 1291.857534 418.718219 
L 191.145205 418.718219 
z
" style="fill:#76c476;opacity:0.8;stroke:#76c476;stroke-linejoin:miter;"/>
   </g>
   <g id="patch_4">
    <path clip-path="url(#p81faf59973)" d="M 191.145205 418.718219 
L 1291.857534 418.718219 
L 1291.857534 382.027808 
L 191.145205 382.027808 
z
" style="fill:#4a82c5;opacity:0.8;stroke:#4a82c5;stroke-linejoin:miter;"/>
   </g>
   <g id="patch_5">
    <path clip-path="url(#p81faf59973)" d="M 191.145205 382.027808 
L 1291.857534 382.027808 
L 1291.857534 345.337397 
L 191.145205 345.337397 
z
" style="fill:#ffd267;opacity:0.8;stroke:#ffd267;stroke-linejoin:miter;"/>
   </g>
   <g id="patch_6">
    <path clip-path="url(#p81faf59973)" d="M 191.145205 345.337397 
L 1291.857534 345.337397 
L 1291.857534 308.646986 
L 191.145205 308.646986 
z
" style="fill:#6adaf5;opacity:0.8;stroke:#6adaf5;stroke-linejoin:miter;"/>
   </g>
   <g id="patch_7">
    <path clip-path="url(#p81faf59973)" d="M 191.145205 308.646986 
L 1291.857534 308.646986 
L 1291.857534 271.956575 
L 191.145205 271.956575 
z
" style="fill:#ffa24b;opacity:0.8;stroke:#ffa24b;stroke-linejoin:miter;"/>
   </g>
   <g id="patch_8">
    <path clip-path="url(#p81faf59973)" d="M 191.145205 271.956575 
L 1291.857534 271.956575 
L 1291.857534 235.266164 
L 191.145205 235.266164 
z
" style="fill:#76c476;opacity:0.8;stroke:#76c476;stroke-linejoin:miter;"/>
   </g>
   <g id="patch_9">
    <path clip-path="url(#p81faf59973)" d="M 576.394521 492.099041 
L 631.430137 492.099041 
L 636.016438 473.753836 
L 631.430137 455.40863 
L 576.394521 455.40863 
L 580.980822 473.753836 
z
" style="fill:#6adaf5;"/>
   </g>
   <g id="patch_10">
    <path clip-path="url(#p81faf59973)" d="M 631.430137 492.099041 
L 686.465753 492.099041 
L 691.052055 473.753836 
L 686.465753 455.40863 
L 631.430137 455.40863 
L 636.016438 473.753836 
z
" style="fill:#ffa24b;"/>
   </g>
   <g id="patch_11">
    <path clip-path="url(#p81faf59973)" d="M 686.465753 492.099041 
L 741.50137 492.099041 
L 746.087671 473.753836 
L 741.50137 455.40863 
L 686.465753 455.40863 
L 691.052055 473.753836 
z
" style="fill:#76c476;"/>
   </g>
   <g id="patch_12">
    <path clip-path="url(#p81faf59973)" d="M 741.50137 492.099041 
L 796.536986 492.099041 
L 801.123288 473.753836 
L 796.536986 455.40863 
L 741.50137 455.40863 
L 746.087671 473.753836 
z
" style="fill:#ffa24b;"/>
   </g>
   <g id="patch_13">
    <path clip-path="url(#p81faf59973)" d="M 796.536986 492.099041 
L 851.572603 492.099041 
L 856.158904 473.753836 
L 801.123288 473.753836 
z
" style="fill:#6adaf5;"/>
   </g>
   <g id="patch_14">
    <path clip-path="url(#p81faf59973)" d="M 851.572603 492.099041 
L 906.608219 492.099041 
L 911.194521 473.753836 
L 856.158904 473.753836 
z
" style="fill:#ffa24b;"/>
   </g>
   <g id="patch_15">
    <path clip-path="url(#p81faf59973)" d="M 801.123288 473.753836 
L 856.158904 473.753836 
L 851.572603 455.40863 
L 796.536986 455.40863 
z
" style="fill:#76c476;"/>
   </g>
   <g id="patch_16">
    <path clip-path="url(#p81faf59973)" d="M 856.158904 473.753836 
L 911.194521 473.753836 
L 906.608219 455.40863 
L 851.572603 455.40863 
z
" style="fill:#ffa24b;"/>
   </g>
   <g id="patch_17">
    <path clip-path="url(#p81faf59973)" d="M 906.608219 492.099041 
L 934.126027 492.099041 
L 938.712329 473.753836 
L 934.126027 455.40863 
L 906.608219 455.40863 
L 911.194521 473.753836 
z
" style="fill:#6adaf5;"/>
   </g>
   <g id="patch_18">
    <path clip-path="url(#p81faf59973)" d="M 934.126027 492.099041 
L 961.643836 492.099041 
L 966.230137 473.753836 
L 961.643836 455.40863 
L 934.126027 455.40863 
L 938.712329 473.753836 
z
" style="fill:#76c476;"/>
   </g>
   <g id="patch_19">
    <path clip-path="url(#p81faf59973)" d="M 961.643836 492.099041 
L 989.161644 492.099041 
L 993.747945 473.753836 
L 989.161644 455.40863 
L 961.643836 455.40863 
L 966.230137 473.753836 
z
" style="fill:#ffd267;"/>
   </g>
   <g id="patch_20">
    <path clip-path="url(#p81faf59973)" d="M 989.161644 492.099041 
L 1016.679452 492.099041 
L 1021.265753 473.753836 
L 1016.679452 455.40863 
L 989.161644 455.40863 
L 993.747945 473.753836 
z
" style="fill:#ffa24b;"/>
   </g>
   <g id="patch_21">
    <path clip-path="url(#p81faf59973)" d="M 1016.679452 492.099041 
L 1044.19726 492.099041 
L 1048.783562 473.753836 
L 1044.19726 455.40863 
L 1016.679452 455.40863 
L 1021.265753 473.753836 
z
" style="fill:#6adaf5;"/>
   </g>
   <g id="patch_22">
    <path clip-path="url(#p81faf59973)" d="M 1044.19726 492.099041 
L 1071.715068 492.099041 
L 1076.30137 473.753836 
L 1071.715068 455.40863 
L 1044.19726 455.40863 
L 1048.783562 473.753836 
z
" style="fill:#76c476;"/>
   </g>
   <g id="patch_23">
    <path clip-path="url(#p81faf59973)" d="M 1071.715068 492.099041 
L 1099.232877 492.099041 
L 1103.819178 473.753836 
L 1099.232877 455.40863 
L 1071.715068 455.40863 
L 1076.30137 473.753836 
z
" style="fill:#ffd267;"/>
   </g>
   <g id="patch_24">
    <path clip-path="url(#p81faf59973)" d="M 1099.232877 492.099041 
L 1126.750685 492.099041 
L 1131.336986 473.753836 
L 1126.750685 455.40863 
L 1099.232877 455.40863 
L 1103.819178 473.753836 
z
" style="fill:#ffa24b;"/>
   </g>
   <g id="patch_25">
    <path clip-path="url(#p81faf59973)" d="M 1126.750685 492.099041 
L 1154.268493 492.099041 
L 1158.854795 473.753836 
L 1154.268493 455.40863 
L 1126.750685 455.40863 
L 1131.336986 473.753836 
z
" style="fill:#6adaf5;"/>
   </g>
   <g id="patch_26">
    <path clip-path="url(#p81faf59973)" d="M 1154.268493 492.099041 
L 1181.786301 492.099041 
L 1186.372603 473.753836 
L 1181.786301 455.40863 
L 1154.268493 455.40863 
L 1158.854795 473.753836 
z
" style="fill:#76c476;"/>
   </g>
   <g id="patch_27">
    <path clip-path="url(#p81faf59973)" d="M 1181.786301 492.099041 
L 1209.30411 492.099041 
L 1213.890411 473.753836 
L 1209.30411 455.40863 
L 1181.786301 455.40863 
L 1186.372603 473.753836 
z
" style="fill:#ffd267;"/>
   </g>
   <g id="patch_28">
    <path clip-path="url(#p81faf59973)" d="M 1209.30411 492.099041 
L 1236.821918 492.099041 
L 1241.408219 473.753836 
L 1236.821918 455.40863 
L 1209.30411 455.40863 
L 1213.890411 473.753836 
z
" style="fill:#ffa24b;"/>
   </g>
   <g id="patch_29">
    <path clip-path="url(#p81faf59973)" d="M 686.465753 455.40863 
L 741.50137 455.40863 
L 746.087671 437.063425 
L 741.50137 418.718219 
L 686.465753 418.718219 
L 691.052055 437.063425 
z
" style="fill:#76c476;"/>
   </g>
   <g id="patch_30">
    <path clip-path="url(#p81faf59973)" d="M 741.50137 455.40863 
L 796.536986 455.40863 
L 801.123288 437.063425 
L 796.536986 418.718219 
L 741.50137 418.718219 
L 746.087671 437.063425 
z
" style="fill:#ffa24b;"/>
   </g>
   <g id="patch_31">
    <path clip-path="url(#p81faf59973)" d="M 796.536986 455.40863 
L 851.572603 455.40863 
L 856.158904 437.063425 
L 851.572603 418.718219 
L 796.536986 418.718219 
L 801.123288 437.063425 
z
" style="fill:#76c476;"/>
   </g>
   <g id="patch_32">
    <path clip-path="url(#p81faf59973)" d="M 851.572603 455.40863 
L 906.608219 455.40863 
L 911.194521 437.063425 
L 906.608219 418.718219 
L 851.572603 418.718219 
L 856.158904 437.063425 
z
" style="fill:#ffa24b;"/>
   </g>
   <g id="patch_33">
    <path clip-path="url(#p81faf59973)" d="M 906.608219 455.40863 
L 934.126027 455.40863 
L 938.712329 437.063425 
L 934.126027 418.718219 
L 906.608219 418.718219 
L 911.194521 437.063425 
z
" style="fill:#6adaf5;"/>
   </g>
   <g id="patch_34">
    <path clip-path="url(#p81faf59973)" d="M 934.126027 455.40863 
L 961.643836 455.40863 
L 966.230137 437.063425 
L 961.643836 418.718219 
L 934.126027 418.718219 
L 938.712329 437.063425 
z
" style="fill:#76c476;"/>
   </g>
   <g id="patch_35">
    <path clip-path="url(#p81faf59973)" d="M 961.643836 455.40863 
L 989.161644 455.40863 
L 993.747945 437.063425 
L 989.161644 418.718219 
L 961.643836 418.718219 
L 966.230137 437.063425 
z
" style="fill:#ffd267;"/>
   </g>
   <g id="patch_36">
    <path clip-path="url(#p81faf59973)" d="M 989.161644 455.40863 
L 1016.679452 455.40863 
L 1021.265753 437.063425 
L 1016.679452 418.718219 
L 989.161644 418.718219 
L 993.747945 437.063425 
z
" style="fill:#ffa24b;"/>
   </g>
   <g id="patch_37">
    <path clip-path="url(#p81faf59973)" d="M 1016.679452 455.40863 
L 1044.19726 455.40863 
L 1048.783562 437.063425 
L 1044.19726 418.718219 
L 1016.679452 418.718219 
L 1021.265753 437.063425 
z
" style="fill:#6adaf5;"/>
   </g>
   <g id="patch_38">
    <path clip-path="url(#p81faf59973)" d="M 1044.19726 455.40863 
L 1071.715068 455.40863 
L 1076.30137 437.063425 
L 1071.715068 418.718219 
L 1044.19726 418.718219 
L 1048.783562 437.063425 
z
" style="fill:#76c476;"/>
   </g>
   <g id="patch_39">
    <path clip-path="url(#p81faf59973)" d="M 1071.715068 455.40863 
L 1099.232877 455.40863 
L 1103.819178 437.063425 
L 1099.232877 418.718219 
L 1071.715068 418.718219 
L 1076.30137 437.063425 
z
" style="fill:#ffd267;"/>
   </g>
   <g id="patch_40">
    <path clip-path="url(#p81faf59973)" d="M 1099.232877 455.40863 
L 1126.750685 455.40863 
L 1131.336986 437.063425 
L 1126.750685 418.718219 
L 1099.232877 418.718219 
L 1103.819178 437.063425 
z
" style="fill:#ffa24b;"/>
   </g>
   <g id="patch_41">
    <path clip-path="url(#p81faf59973)" d="M 1126.750685 455.40863 
L 1154.268493 455.40863 
L 1158.854795 437.063425 
L 1154.268493 418.718219 
L 1126.750685 418.718219 
L 1131.336986 437.063425 
z
" style="fill:#6adaf5;"/>
   </g>
   <g id="patch_42">
    <path clip-path="url(#p81faf59973)" d="M 1154.268493 455.40863 
L 1181.786301 455.40863 
L 1186.372603 437.063425 
L 1181.786301 418.718219 
L 1154.268493 418.718219 
L 1158.854795 437.063425 
z
" style="fill:#76c476;"/>
   </g>
   <g id="patch_43">
    <path clip-path="url(#p81faf59973)" d="M 1181.786301 455.40863 
L 1209.30411 455.40863 
L 1213.890411 437.063425 
L 1209.30411 418.718219 
L 1181.786301 418.718219 
L 1186.372603 437.063425 
z
" style="fill:#ffd267;"/>
   </g>
   <g id="patch_44">
    <path clip-path="url(#p81faf59973)" d="M 1209.30411 455.40863 
L 1236.821918 455.40863 
L 1241.408219 437.063425 
L 1236.821918 418.718219 
L 1209.30411 418.718219 
L 1213.890411 437.063425 
z
" style="fill:#ffa24b;"/>
   </g>
   <g id="patch_45">
    <path clip-path="url(#p81faf59973)" d="M 246.180822 418.718219 
L 301.216438 418.718219 
L 305.80274 400.373014 
L 301.216438 382.027808 
L 246.180822 382.027808 
L 250.767123 400.373014 
z
" style="fill:#4a82c5;"/>
   </g>
   <g id="patch_46">
    <path clip-path="url(#p81faf59973)" d="M 301.216438 418.718219 
L 356.252055 418.718219 
L 360.838356 400.373014 
L 356.252055 382.027808 
L 301.216438 382.027808 
L 305.80274 400.373014 
z
" style="fill:#ffa24b;"/>
   </g>
   <g id="patch_47">
    <path clip-path="url(#p81faf59973)" d="M 356.252055 418.718219 
L 411.287671 418.718219 
L 415.873973 400.373014 
L 411.287671 382.027808 
L 356.252055 382.027808 
L 360.838356 400.373014 
z
" style="fill:#4a82c5;"/>
   </g>
   <g id="patch_48">
    <path clip-path="url(#p81faf59973)" d="M 411.287671 418.718219 
L 466.323288 418.718219 
L 470.909589 400.373014 
L 466.323288 382.027808 
L 411.287671 382.027808 
L 415.873973 400.373014 
z
" style="fill:#ffa24b;"/>
   </g>
   <g id="patch_49">
    <path clip-path="url(#p81faf59973)" d="M 906.608219 382.027808 
L 934.126027 382.027808 
L 938.712329 363.682603 
L 934.126027 345.337397 
L 906.608219 345.337397 
L 911.194521 363.682603 
z
" style="fill:#6adaf5;"/>
   </g>
   <g id="patch_50">
    <path clip-path="url(#p81faf59973)" d="M 934.126027 382.027808 
L 961.643836 382.027808 
L 966.230137 363.682603 
L 961.643836 345.337397 
L 934.126027 345.337397 
L 938.712329 363.682603 
z
" style="fill:#76c476;"/>
   </g>
   <g id="patch_51">
    <path clip-path="url(#p81faf59973)" d="M 961.643836 382.027808 
L 989.161644 382.027808 
L 993.747945 363.682603 
L 989.161644 345.337397 
L 961.643836 345.337397 
L 966.230137 363.682603 
z
" style="fill:#ffd267;"/>
   </g>
   <g id="patch_52">
    <path clip-path="url(#p81faf59973)" d="M 989.161644 382.027808 
L 1016.679452 382.027808 
L 1021.265753 363.682603 
L 1016.679452 345.337397 
L 989.161644 345.337397 
L 993.747945 363.682603 
z
" style="fill:#ffa24b;"/>
   </g>
   <g id="patch_53">
    <path clip-path="url(#p81faf59973)" d="M 1016.679452 382.027808 
L 1044.19726 382.027808 
L 1048.783562 363.682603 
L 1044.19726 345.337397 
L 1016.679452 345.337397 
L 1021.265753 363.682603 
z
" style="fill:#6adaf5;"/>
   </g>
   <g id="patch_54">
    <path clip-path="url(#p81faf59973)" d="M 1044.19726 382.027808 
L 1071.715068 382.027808 
L 1076.30137 363.682603 
L 1071.715068 345.337397 
L 1044.19726 345.337397 
L 1048.783562 363.682603 
z
" style="fill:#76c476;"/>
   </g>
   <g id="patch_55">
    <path clip-path="url(#p81faf59973)" d="M 1071.715068 382.027808 
L 1099.232877 382.027808 
L 1103.819178 363.682603 
L 1099.232877 345.337397 
L 1071.715068 345.337397 
L 1076.30137 363.682603 
z
" style="fill:#ffd267;"/>
   </g>
   <g id="patch_56">
    <path clip-path="url(#p81faf59973)" d="M 1099.232877 382.027808 
L 1126.750685 382.027808 
L 1131.336986 363.682603 
L 1126.750685 345.337397 
L 1099.232877 345.337397 
L 1103.819178 363.682603 
z
" style="fill:#ffa24b;"/>
   </g>
   <g id="patch_57">
    <path clip-path="url(#p81faf59973)" d="M 1126.750685 382.027808 
L 1154.268493 382.027808 
L 1158.854795 363.682603 
L 1154.268493 345.337397 
L 1126.750685 345.337397 
L 1131.336986 363.682603 
z
" style="fill:#6adaf5;"/>
   </g>
   <g id="patch_58">
    <path clip-path="url(#p81faf59973)" d="M 1154.268493 382.027808 
L 1181.786301 382.027808 
L 1186.372603 363.682603 
L 1181.786301 345.337397 
L 1154.268493 345.337397 
L 1158.854795 363.682603 
z
" style="fill:#76c476;"/>
   </g>
   <g id="patch_59">
    <path clip-path="url(#p81faf59973)" d="M 1181.786301 382.027808 
L 1209.30411 382.027808 
L 1213.890411 363.682603 
L 1209.30411 345.337397 
L 1181.786301 345.337397 
L 1186.372603 363.682603 
z
" style="fill:#ffd267;"/>
   </g>
   <g id="patch_60">
    <path clip-path="url(#p81faf59973)" d="M 1209.30411 382.027808 
L 1236.821918 382.027808 
L 1241.408219 363.682603 
L 1236.821918 345.337397 
L 1209.30411 345.337397 
L 1213.890411 363.682603 
z
" style="fill:#ffa24b;"/>
   </g>
   <g id="patch_61">
    <path clip-path="url(#p81faf59973)" d="M 356.252055 345.337397 
L 411.287671 345.337397 
L 415.873973 326.992192 
L 411.287671 308.646986 
L 356.252055 308.646986 
L 360.838356 326.992192 
z
" style="fill:#6adaf5;"/>
   </g>
   <g id="patch_62">
    <path clip-path="url(#p81faf59973)" d="M 411.287671 345.337397 
L 466.323288 345.337397 
L 470.909589 326.992192 
L 466.323288 308.646986 
L 411.287671 308.646986 
L 415.873973 326.992192 
z
" style="fill:#76c476;"/>
   </g>
   <g id="patch_63">
    <path clip-path="url(#p81faf59973)" d="M 686.465753 345.337397 
L 741.50137 345.337397 
L 746.087671 326.992192 
L 741.50137 308.646986 
L 686.465753 308.646986 
L 691.052055 326.992192 
z
" style="fill:#6adaf5;"/>
   </g>
   <g id="patch_64">
    <path clip-path="url(#p81faf59973)" d="M 741.50137 345.337397 
L 796.536986 345.337397 
L 801.123288 326.992192 
L 796.536986 308.646986 
L 741.50137 308.646986 
L 746.087671 326.992192 
z
" style="fill:#76c476;"/>
   </g>
   <g id="patch_65">
    <path clip-path="url(#p81faf59973)" d="M 796.536986 345.337397 
L 851.572603 345.337397 
L 856.158904 326.992192 
L 851.572603 308.646986 
L 796.536986 308.646986 
L 801.123288 326.992192 
z
" style="fill:#6adaf5;"/>
   </g>
   <g id="patch_66">
    <path clip-path="url(#p81faf59973)" d="M 851.572603 345.337397 
L 906.608219 345.337397 
L 911.194521 326.992192 
L 906.608219 308.646986 
L 851.572603 308.646986 
L 856.158904 326.992192 
z
" style="fill:#ffa24b;"/>
   </g>
   <g id="patch_67">
    <path clip-path="url(#p81faf59973)" d="M 906.608219 345.337397 
L 934.126027 345.337397 
L 938.712329 326.992192 
L 934.126027 308.646986 
L 906.608219 308.646986 
L 911.194521 326.992192 
z
" style="fill:#6adaf5;"/>
   </g>
   <g id="patch_68">
    <path clip-path="url(#p81faf59973)" d="M 934.126027 345.337397 
L 961.643836 345.337397 
L 966.230137 326.992192 
L 961.643836 308.646986 
L 934.126027 308.646986 
L 938.712329 326.992192 
z
" style="fill:#76c476;"/>
   </g>
   <g id="patch_69">
    <path clip-path="url(#p81faf59973)" d="M 961.643836 345.337397 
L 989.161644 345.337397 
L 993.747945 326.992192 
L 989.161644 308.646986 
L 961.643836 308.646986 
L 966.230137 326.992192 
z
" style="fill:#ffd267;"/>
   </g>
   <g id="patch_70">
    <path clip-path="url(#p81faf59973)" d="M 989.161644 345.337397 
L 1016.679452 345.337397 
L 1021.265753 326.992192 
L 1016.679452 308.646986 
L 989.161644 308.646986 
L 993.747945 326.992192 
z
" style="fill:#ffa24b;"/>
   </g>
   <g id="patch_71">
    <path clip-path="url(#p81faf59973)" d="M 1016.679452 345.337397 
L 1044.19726 345.337397 
L 1048.783562 326.992192 
L 1044.19726 308.646986 
L 1016.679452 308.646986 
L 1021.265753 326.992192 
z
" style="fill:#6adaf5;"/>
   </g>
   <g id="patch_72">
    <path clip-path="url(#p81faf59973)" d="M 1044.19726 345.337397 
L 1071.715068 345.337397 
L 1076.30137 326.992192 
L 1071.715068 308.646986 
L 1044.19726 308.646986 
L 1048.783562 326.992192 
z
" style="fill:#76c476;"/>
   </g>
   <g id="patch_73">
    <path clip-path="url(#p81faf59973)" d="M 1071.715068 345.337397 
L 1099.232877 345.337397 
L 1103.819178 326.992192 
L 1099.232877 308.646986 
L 1071.715068 308.646986 
L 1076.30137 326.992192 
z
" style="fill:#ffd267;"/>
   </g>
   <g id="patch_74">
    <path clip-path="url(#p81faf59973)" d="M 1099.232877 345.337397 
L 1126.750685 345.337397 
L 1131.336986 326.992192 
L 1126.750685 308.646986 
L 1099.232877 308.646986 
L 1103.819178 326.992192 
z
" style="fill:#ffa24b;"/>
   </g>
   <g id="patch_75">
    <path clip-path="url(#p81faf59973)" d="M 1126.750685 345.337397 
L 1154.268493 345.337397 
L 1158.854795 326.992192 
L 1154.268493 308.646986 
L 1126.750685 308.646986 
L 1131.336986 326.992192 
z
" style="fill:#6adaf5;"/>
   </g>
   <g id="patch_76">
    <path clip-path="url(#p81faf59973)" d="M 1154.268493 345.337397 
L 1181.786301 345.337397 
L 1186.372603 326.992192 
L 1181.786301 308.646986 
L 1154.268493 308.646986 
L 1158.854795 326.992192 
z
" style="fill:#76c476;"/>
   </g>
   <g id="patch_77">
    <path clip-path="url(#p81faf59973)" d="M 1181.786301 345.337397 
L 1209.30411 345.337397 
L 1213.890411 326.992192 
L 1209.30411 308.646986 
L 1181.786301 308.646986 
L 1186.372603 326.992192 
z
" style="fill:#ffd267;"/>
   </g>
   <g id="patch_78">
    <path clip-path="url(#p81faf59973)" d="M 1209.30411 345.337397 
L 1236.821918 345.337397 
L 1241.408219 326.992192 
L 1236.821918 308.646986 
L 1209.30411 308.646986 
L 1213.890411 326.992192 
z
" style="fill:#ffa24b;"/>
   </g>
   <g id="patch_79">
    <path clip-path="url(#p81faf59973)" d="M 246.180822 308.646986 
L 301.216438 308.646986 
L 305.80274 290.301781 
L 301.216438 271.956575 
L 246.180822 271.956575 
L 250.767123 290.301781 
z
" style="fill:#4a82c5;"/>
   </g>
   <g id="patch_80">
    <path clip-path="url(#p81faf59973)" d="M 301.216438 308.646986 
L 356.252055 308.646986 
L 360.838356 290.301781 
L 356.252055 271.956575 
L 301.216438 271.956575 
L 305.80274 290.301781 
z
" style="fill:#ffa24b;"/>
   </g>
   <g id="patch_81">
    <path clip-path="url(#p81faf59973)" d="M 356.252055 308.646986 
L 411.287671 308.646986 
L 415.873973 290.301781 
L 411.287671 271.956575 
L 356.252055 271.956575 
L 360.838356 290.301781 
z
" style="fill:#4a82c5;"/>
   </g>
   <g id="patch_82">
    <path clip-path="url(#p81faf59973)" d="M 411.287671 308.646986 
L 466.323288 308.646986 
L 470.909589 290.301781 
L 466.323288 271.956575 
L 411.287671 271.956575 
L 415.873973 290.301781 
z
" style="fill:#ffa24b;"/>
   </g>
   <g id="patch_83">
    <path clip-path="url(#p81faf59973)" d="M 466.323288 308.646986 
L 521.358904 308.646986 
L 525.945205 290.301781 
L 521.358904 271.956575 
L 466.323288 271.956575 
L 470.909589 290.301781 
z
" style="fill:#76c476;"/>
   </g>
   <g id="patch_84">
    <path clip-path="url(#p81faf59973)" d="M 521.358904 308.646986 
L 576.394521 308.646986 
L 580.980822 290.301781 
L 576.394521 271.956575 
L 521.358904 271.956575 
L 525.945205 290.301781 
z
" style="fill:#ffa24b;"/>
   </g>
   <g id="patch_85">
    <path clip-path="url(#p81faf59973)" d="M 466.323288 271.956575 
L 521.358904 271.956575 
L 525.945205 253.61137 
L 521.358904 235.266164 
L 466.323288 235.266164 
L 470.909589 253.61137 
z
" style="fill:#76c476;"/>
   </g>
   <g id="patch_86">
    <path clip-path="url(#p81faf59973)" d="M 521.358904 271.956575 
L 576.394521 271.956575 
L 580.980822 253.61137 
L 576.394521 235.266164 
L 521.358904 235.266164 
L 525.945205 253.61137 
z
" style="fill:#ffa24b;"/>
   </g>
   <g id="patch_87">
    <path clip-path="url(#p81faf59973)" d="M 576.394521 271.956575 
L 631.430137 271.956575 
L 636.016438 253.61137 
L 631.430137 235.266164 
L 576.394521 235.266164 
L 580.980822 253.61137 
z
" style="fill:#6adaf5;"/>
   </g>
   <g id="patch_88">
    <path clip-path="url(#p81faf59973)" d="M 631.430137 271.956575 
L 686.465753 271.956575 
L 691.052055 253.61137 
L 686.465753 235.266164 
L 631.430137 235.266164 
L 636.016438 253.61137 
z
" style="fill:#76c476;"/>
   </g>
   <g id="patch_89">
    <path clip-path="url(#p81faf59973)" d="M 686.465753 271.956575 
L 741.50137 271.956575 
L 746.087671 253.61137 
L 741.50137 235.266164 
L 686.465753 235.266164 
L 691.052055 253.61137 
z
" style="fill:#6adaf5;"/>
   </g>
   <g id="patch_90">
    <path clip-path="url(#p81faf59973)" d="M 741.50137 271.956575 
L 796.536986 271.956575 
L 801.123288 253.61137 
L 796.536986 235.266164 
L 741.50137 235.266164 
L 746.087671 253.61137 
z
" style="fill:#76c476;"/>
   </g>
   <g id="text_1">
    <!-- 1 -->
    <g transform="translate(172.8 474.854548)scale(0.09 -0.09)">
     <defs>
      <path d="M 12.40625 8.296875 
L 28.515625 8.296875 
L 28.515625 63.921875 
L 10.984375 60.40625 
L 10.984375 69.390625 
L 28.421875 72.90625 
L 38.28125 72.90625 
L 38.28125 8.296875 
L 54.390625 8.296875 
L 54.390625 0 
L 12.40625 0 
z
" id="DejaVuSans-49"/>
     </defs>
     <use xlink:href="#DejaVuSans-49"/>
    </g>
   </g>
   <g id="text_2">
    <!-- goods receipt 0 -->
    <g transform="translate(194.814247 474.854548)scale(0.09 -0.09)">
     <defs>
      <path d="M 45.40625 27.984375 
Q 45.40625 37.75 41.375 43.109375 
Q 37.359375 48.484375 30.078125 48.484375 
Q 22.859375 48.484375 18.828125 43.109375 
Q 14.796875 37.75 14.796875 27.984375 
Q 14.796875 18.265625 18.828125 12.890625 
Q 22.859375 7.515625 30.078125 7.515625 
Q 37.359375 7.515625 41.375 12.890625 
Q 45.40625 18.265625 45.40625 27.984375 
z
M 54.390625 6.78125 
Q 54.390625 -7.171875 48.1875 -13.984375 
Q 42 -20.796875 29.203125 -20.796875 
Q 24.46875 -20.796875 20.265625 -20.09375 
Q 16.0625 -19.390625 12.109375 -17.921875 
L 12.109375 -9.1875 
Q 16.0625 -11.328125 19.921875 -12.34375 
Q 23.78125 -13.375 27.78125 -13.375 
Q 36.625 -13.375 41.015625 -8.765625 
Q 45.40625 -4.15625 45.40625 5.171875 
L 45.40625 9.625 
Q 42.625 4.78125 38.28125 2.390625 
Q 33.9375 0 27.875 0 
Q 17.828125 0 11.671875 7.65625 
Q 5.515625 15.328125 5.515625 27.984375 
Q 5.515625 40.671875 11.671875 48.328125 
Q 17.828125 56 27.875 56 
Q 33.9375 56 38.28125 53.609375 
Q 42.625 51.21875 45.40625 46.390625 
L 45.40625 54.6875 
L 54.390625 54.6875 
z
" id="DejaVuSans-103"/>
      <path d="M 30.609375 48.390625 
Q 23.390625 48.390625 19.1875 42.75 
Q 14.984375 37.109375 14.984375 27.296875 
Q 14.984375 17.484375 19.15625 11.84375 
Q 23.34375 6.203125 30.609375 6.203125 
Q 37.796875 6.203125 41.984375 11.859375 
Q 46.1875 17.53125 46.1875 27.296875 
Q 46.1875 37.015625 41.984375 42.703125 
Q 37.796875 48.390625 30.609375 48.390625 
z
M 30.609375 56 
Q 42.328125 56 49.015625 48.375 
Q 55.71875 40.765625 55.71875 27.296875 
Q 55.71875 13.875 49.015625 6.21875 
Q 42.328125 -1.421875 30.609375 -1.421875 
Q 18.84375 -1.421875 12.171875 6.21875 
Q 5.515625 13.875 5.515625 27.296875 
Q 5.515625 40.765625 12.171875 48.375 
Q 18.84375 56 30.609375 56 
z
" id="DejaVuSans-111"/>
      <path d="M 45.40625 46.390625 
L 45.40625 75.984375 
L 54.390625 75.984375 
L 54.390625 0 
L 45.40625 0 
L 45.40625 8.203125 
Q 42.578125 3.328125 38.25 0.953125 
Q 33.9375 -1.421875 27.875 -1.421875 
Q 17.96875 -1.421875 11.734375 6.484375 
Q 5.515625 14.40625 5.515625 27.296875 
Q 5.515625 40.1875 11.734375 48.09375 
Q 17.96875 56 27.875 56 
Q 33.9375 56 38.25 53.625 
Q 42.578125 51.265625 45.40625 46.390625 
z
M 14.796875 27.296875 
Q 14.796875 17.390625 18.875 11.75 
Q 22.953125 6.109375 30.078125 6.109375 
Q 37.203125 6.109375 41.296875 11.75 
Q 45.40625 17.390625 45.40625 27.296875 
Q 45.40625 37.203125 41.296875 42.84375 
Q 37.203125 48.484375 30.078125 48.484375 
Q 22.953125 48.484375 18.875 42.84375 
Q 14.796875 37.203125 14.796875 27.296875 
z
" id="DejaVuSans-100"/>
      <path d="M 44.28125 53.078125 
L 44.28125 44.578125 
Q 40.484375 46.53125 36.375 47.5 
Q 32.28125 48.484375 27.875 48.484375 
Q 21.1875 48.484375 17.84375 46.4375 
Q 14.5 44.390625 14.5 40.28125 
Q 14.5 37.15625 16.890625 35.375 
Q 19.28125 33.59375 26.515625 31.984375 
L 29.59375 31.296875 
Q 39.15625 29.25 43.1875 25.515625 
Q 47.21875 21.78125 47.21875 15.09375 
Q 47.21875 7.46875 41.1875 3.015625 
Q 35.15625 -1.421875 24.609375 -1.421875 
Q 20.21875 -1.421875 15.453125 -0.5625 
Q 10.6875 0.296875 5.421875 2 
L 5.421875 11.28125 
Q 10.40625 8.6875 15.234375 7.390625 
Q 20.0625 6.109375 24.8125 6.109375 
Q 31.15625 6.109375 34.5625 8.28125 
Q 37.984375 10.453125 37.984375 14.40625 
Q 37.984375 18.0625 35.515625 20.015625 
Q 33.0625 21.96875 24.703125 23.78125 
L 21.578125 24.515625 
Q 13.234375 26.265625 9.515625 29.90625 
Q 5.8125 33.546875 5.8125 39.890625 
Q 5.8125 47.609375 11.28125 51.796875 
Q 16.75 56 26.8125 56 
Q 31.78125 56 36.171875 55.265625 
Q 40.578125 54.546875 44.28125 53.078125 
z
" id="DejaVuSans-115"/>
      <path id="DejaVuSans-32"/>
      <path d="M 41.109375 46.296875 
Q 39.59375 47.171875 37.8125 47.578125 
Q 36.03125 48 33.890625 48 
Q 26.265625 48 22.1875 43.046875 
Q 18.109375 38.09375 18.109375 28.8125 
L 18.109375 0 
L 9.078125 0 
L 9.078125 54.6875 
L 18.109375 54.6875 
L 18.109375 46.1875 
Q 20.953125 51.171875 25.484375 53.578125 
Q 30.03125 56 36.53125 56 
Q 37.453125 56 38.578125 55.875 
Q 39.703125 55.765625 41.0625 55.515625 
z
" id="DejaVuSans-114"/>
      <path d="M 56.203125 29.59375 
L 56.203125 25.203125 
L 14.890625 25.203125 
Q 15.484375 15.921875 20.484375 11.0625 
Q 25.484375 6.203125 34.421875 6.203125 
Q 39.59375 6.203125 44.453125 7.46875 
Q 49.3125 8.734375 54.109375 11.28125 
L 54.109375 2.78125 
Q 49.265625 0.734375 44.1875 -0.34375 
Q 39.109375 -1.421875 33.890625 -1.421875 
Q 20.796875 -1.421875 13.15625 6.1875 
Q 5.515625 13.8125 5.515625 26.8125 
Q 5.515625 40.234375 12.765625 48.109375 
Q 20.015625 56 32.328125 56 
Q 43.359375 56 49.78125 48.890625 
Q 56.203125 41.796875 56.203125 29.59375 
z
M 47.21875 32.234375 
Q 47.125 39.59375 43.09375 43.984375 
Q 39.0625 48.390625 32.421875 48.390625 
Q 24.90625 48.390625 20.390625 44.140625 
Q 15.875 39.890625 15.1875 32.171875 
z
" id="DejaVuSans-101"/>
      <path d="M 48.78125 52.59375 
L 48.78125 44.1875 
Q 44.96875 46.296875 41.140625 47.34375 
Q 37.3125 48.390625 33.40625 48.390625 
Q 24.65625 48.390625 19.8125 42.84375 
Q 14.984375 37.3125 14.984375 27.296875 
Q 14.984375 17.28125 19.8125 11.734375 
Q 24.65625 6.203125 33.40625 6.203125 
Q 37.3125 6.203125 41.140625 7.25 
Q 44.96875 8.296875 48.78125 10.40625 
L 48.78125 2.09375 
Q 45.015625 0.34375 40.984375 -0.53125 
Q 36.96875 -1.421875 32.421875 -1.421875 
Q 20.0625 -1.421875 12.78125 6.34375 
Q 5.515625 14.109375 5.515625 27.296875 
Q 5.515625 40.671875 12.859375 48.328125 
Q 20.21875 56 33.015625 56 
Q 37.15625 56 41.109375 55.140625 
Q 45.0625 54.296875 48.78125 52.59375 
z
" id="DejaVuSans-99"/>
      <path d="M 9.421875 54.6875 
L 18.40625 54.6875 
L 18.40625 0 
L 9.421875 0 
z
M 9.421875 75.984375 
L 18.40625 75.984375 
L 18.40625 64.59375 
L 9.421875 64.59375 
z
" id="DejaVuSans-105"/>
      <path d="M 18.109375 8.203125 
L 18.109375 -20.796875 
L 9.078125 -20.796875 
L 9.078125 54.6875 
L 18.109375 54.6875 
L 18.109375 46.390625 
Q 20.953125 51.265625 25.265625 53.625 
Q 29.59375 56 35.59375 56 
Q 45.5625 56 51.78125 48.09375 
Q 58.015625 40.1875 58.015625 27.296875 
Q 58.015625 14.40625 51.78125 6.484375 
Q 45.5625 -1.421875 35.59375 -1.421875 
Q 29.59375 -1.421875 25.265625 0.953125 
Q 20.953125 3.328125 18.109375 8.203125 
z
M 48.6875 27.296875 
Q 48.6875 37.203125 44.609375 42.84375 
Q 40.53125 48.484375 33.40625 48.484375 
Q 26.265625 48.484375 22.1875 42.84375 
Q 18.109375 37.203125 18.109375 27.296875 
Q 18.109375 17.390625 22.1875 11.75 
Q 26.265625 6.109375 33.40625 6.109375 
Q 40.53125 6.109375 44.609375 11.75 
Q 48.6875 17.390625 48.6875 27.296875 
z
" id="DejaVuSans-112"/>
      <path d="M 18.3125 70.21875 
L 18.3125 54.6875 
L 36.8125 54.6875 
L 36.8125 47.703125 
L 18.3125 47.703125 
L 18.3125 18.015625 
Q 18.3125 11.328125 20.140625 9.421875 
Q 21.96875 7.515625 27.59375 7.515625 
L 36.8125 7.515625 
L 36.8125 0 
L 27.59375 0 
Q 17.1875 0 13.234375 3.875 
Q 9.28125 7.765625 9.28125 18.015625 
L 9.28125 47.703125 
L 2.6875 47.703125 
L 2.6875 54.6875 
L 9.28125 54.6875 
L 9.28125 70.21875 
z
" id="DejaVuSans-116"/>
      <path d="M 31.78125 66.40625 
Q 24.171875 66.40625 20.328125 58.90625 
Q 16.5 51.421875 16.5 36.375 
Q 16.5 21.390625 20.328125 13.890625 
Q 24.171875 6.390625 31.78125 6.390625 
Q 39.453125 6.390625 43.28125 13.890625 
Q 47.125 21.390625 47.125 36.375 
Q 47.125 51.421875 43.28125 58.90625 
Q 39.453125 66.40625 31.78125 66.40625 
z
M 31.78125 74.21875 
Q 44.046875 74.21875 50.515625 64.515625 
Q 56.984375 54.828125 56.984375 36.375 
Q 56.984375 17.96875 50.515625 8.265625 
Q 44.046875 -1.421875 31.78125 -1.421875 
Q 19.53125 -1.421875 13.0625 8.265625 
Q 6.59375 17.96875 6.59375 36.375 
Q 6.59375 54.828125 13.0625 64.515625 
Q 19.53125 74.21875 31.78125 74.21875 
z
" id="DejaVuSans-48"/>
     </defs>
     <use xlink:href="#DejaVuSans-103"/>
     <use x="63.476562" xlink:href="#DejaVuSans-111"/>
     <use x="124.658203" xlink:href="#DejaVuSans-111"/>
     <use x="185.839844" xlink:href="#DejaVuSans-100"/>
     <use x="249.316406" xlink:href="#DejaVuSans-115"/>
     <use x="301.416016" xlink:href="#DejaVuSans-32"/>
     <use x="333.203125" xlink:href="#DejaVuSans-114"/>
     <use x="372.066406" xlink:href="#DejaVuSans-101"/>
     <use x="433.589844" xlink:href="#DejaVuSans-99"/>
     <use x="488.570312" xlink:href="#DejaVuSans-101"/>
     <use x="550.09375" xlink:href="#DejaVuSans-105"/>
     <use x="577.876953" xlink:href="#DejaVuSans-112"/>
     <use x="641.353516" xlink:href="#DejaVuSans-116"/>
     <use x="680.5625" xlink:href="#DejaVuSans-32"/>
     <use x="712.349609" xlink:href="#DejaVuSans-48"/>
    </g>
   </g>
   <g id="text_3">
    <!-- 1 -->
    <g transform="translate(172.8 438.164137)scale(0.09 -0.09)">
     <use xlink:href="#DejaVuSans-49"/>
    </g>
   </g>
   <g id="text_4">
    <!-- invoice receipt 0 -->
    <g transform="translate(194.814247 438.164137)scale(0.09 -0.09)">
     <defs>
      <path d="M 54.890625 33.015625 
L 54.890625 0 
L 45.90625 0 
L 45.90625 32.71875 
Q 45.90625 40.484375 42.875 44.328125 
Q 39.84375 48.1875 33.796875 48.1875 
Q 26.515625 48.1875 22.3125 43.546875 
Q 18.109375 38.921875 18.109375 30.90625 
L 18.109375 0 
L 9.078125 0 
L 9.078125 54.6875 
L 18.109375 54.6875 
L 18.109375 46.1875 
Q 21.34375 51.125 25.703125 53.5625 
Q 30.078125 56 35.796875 56 
Q 45.21875 56 50.046875 50.171875 
Q 54.890625 44.34375 54.890625 33.015625 
z
" id="DejaVuSans-110"/>
      <path d="M 2.984375 54.6875 
L 12.5 54.6875 
L 29.59375 8.796875 
L 46.6875 54.6875 
L 56.203125 54.6875 
L 35.6875 0 
L 23.484375 0 
z
" id="DejaVuSans-118"/>
     </defs>
     <use xlink:href="#DejaVuSans-105"/>
     <use x="27.783203" xlink:href="#DejaVuSans-110"/>
     <use x="91.162109" xlink:href="#DejaVuSans-118"/>
     <use x="150.341797" xlink:href="#DejaVuSans-111"/>
     <use x="211.523438" xlink:href="#DejaVuSans-105"/>
     <use x="239.306641" xlink:href="#DejaVuSans-99"/>
     <use x="294.287109" xlink:href="#DejaVuSans-101"/>
     <use x="355.810547" xlink:href="#DejaVuSans-32"/>
     <use x="387.597656" xlink:href="#DejaVuSans-114"/>
     <use x="426.460938" xlink:href="#DejaVuSans-101"/>
     <use x="487.984375" xlink:href="#DejaVuSans-99"/>
     <use x="542.964844" xlink:href="#DejaVuSans-101"/>
     <use x="604.488281" xlink:href="#DejaVuSans-105"/>
     <use x="632.271484" xlink:href="#DejaVuSans-112"/>
     <use x="695.748047" xlink:href="#DejaVuSans-116"/>
     <use x="734.957031" xlink:href="#DejaVuSans-32"/>
     <use x="766.744141" xlink:href="#DejaVuSans-48"/>
    </g>
   </g>
   <g id="text_5">
    <!-- 1 -->
    <g transform="translate(172.8 401.473726)scale(0.09 -0.09)">
     <use xlink:href="#DejaVuSans-49"/>
    </g>
   </g>
   <g id="text_6">
    <!-- material 0 -->
    <g transform="translate(194.814247 401.473726)scale(0.09 -0.09)">
     <defs>
      <path d="M 52 44.1875 
Q 55.375 50.25 60.0625 53.125 
Q 64.75 56 71.09375 56 
Q 79.640625 56 84.28125 50.015625 
Q 88.921875 44.046875 88.921875 33.015625 
L 88.921875 0 
L 79.890625 0 
L 79.890625 32.71875 
Q 79.890625 40.578125 77.09375 44.375 
Q 74.3125 48.1875 68.609375 48.1875 
Q 61.625 48.1875 57.5625 43.546875 
Q 53.515625 38.921875 53.515625 30.90625 
L 53.515625 0 
L 44.484375 0 
L 44.484375 32.71875 
Q 44.484375 40.625 41.703125 44.40625 
Q 38.921875 48.1875 33.109375 48.1875 
Q 26.21875 48.1875 22.15625 43.53125 
Q 18.109375 38.875 18.109375 30.90625 
L 18.109375 0 
L 9.078125 0 
L 9.078125 54.6875 
L 18.109375 54.6875 
L 18.109375 46.1875 
Q 21.1875 51.21875 25.484375 53.609375 
Q 29.78125 56 35.6875 56 
Q 41.65625 56 45.828125 52.96875 
Q 50 49.953125 52 44.1875 
z
" id="DejaVuSans-109"/>
      <path d="M 34.28125 27.484375 
Q 23.390625 27.484375 19.1875 25 
Q 14.984375 22.515625 14.984375 16.5 
Q 14.984375 11.71875 18.140625 8.90625 
Q 21.296875 6.109375 26.703125 6.109375 
Q 34.1875 6.109375 38.703125 11.40625 
Q 43.21875 16.703125 43.21875 25.484375 
L 43.21875 27.484375 
z
M 52.203125 31.203125 
L 52.203125 0 
L 43.21875 0 
L 43.21875 8.296875 
Q 40.140625 3.328125 35.546875 0.953125 
Q 30.953125 -1.421875 24.3125 -1.421875 
Q 15.921875 -1.421875 10.953125 3.296875 
Q 6 8.015625 6 15.921875 
Q 6 25.140625 12.171875 29.828125 
Q 18.359375 34.515625 30.609375 34.515625 
L 43.21875 34.515625 
L 43.21875 35.40625 
Q 43.21875 41.609375 39.140625 45 
Q 35.0625 48.390625 27.6875 48.390625 
Q 23 48.390625 18.546875 47.265625 
Q 14.109375 46.140625 10.015625 43.890625 
L 10.015625 52.203125 
Q 14.9375 54.109375 19.578125 55.046875 
Q 24.21875 56 28.609375 56 
Q 40.484375 56 46.34375 49.84375 
Q 52.203125 43.703125 52.203125 31.203125 
z
" id="DejaVuSans-97"/>
      <path d="M 9.421875 75.984375 
L 18.40625 75.984375 
L 18.40625 0 
L 9.421875 0 
z
" id="DejaVuSans-108"/>
     </defs>
     <use xlink:href="#DejaVuSans-109"/>
     <use x="97.412109" xlink:href="#DejaVuSans-97"/>
     <use x="158.691406" xlink:href="#DejaVuSans-116"/>
     <use x="197.900391" xlink:href="#DejaVuSans-101"/>
     <use x="259.423828" xlink:href="#DejaVuSans-114"/>
     <use x="300.537109" xlink:href="#DejaVuSans-105"/>
     <use x="328.320312" xlink:href="#DejaVuSans-97"/>
     <use x="389.599609" xlink:href="#DejaVuSans-108"/>
     <use x="417.382812" xlink:href="#DejaVuSans-32"/>
     <use x="449.169922" xlink:href="#DejaVuSans-48"/>
    </g>
   </g>
   <g id="text_7">
    <!-- 1 -->
    <g transform="translate(172.8 364.783315)scale(0.09 -0.09)">
     <use xlink:href="#DejaVuSans-49"/>
    </g>
   </g>
   <g id="text_8">
    <!-- payment 0 -->
    <g transform="translate(194.814247 364.783315)scale(0.09 -0.09)">
     <defs>
      <path d="M 32.171875 -5.078125 
Q 28.375 -14.84375 24.75 -17.8125 
Q 21.140625 -20.796875 15.09375 -20.796875 
L 7.90625 -20.796875 
L 7.90625 -13.28125 
L 13.1875 -13.28125 
Q 16.890625 -13.28125 18.9375 -11.515625 
Q 21 -9.765625 23.484375 -3.21875 
L 25.09375 0.875 
L 2.984375 54.6875 
L 12.5 54.6875 
L 29.59375 11.921875 
L 46.6875 54.6875 
L 56.203125 54.6875 
z
" id="DejaVuSans-121"/>
     </defs>
     <use xlink:href="#DejaVuSans-112"/>
     <use x="63.476562" xlink:href="#DejaVuSans-97"/>
     <use x="124.755859" xlink:href="#DejaVuSans-121"/>
     <use x="183.935547" xlink:href="#DejaVuSans-109"/>
     <use x="281.347656" xlink:href="#DejaVuSans-101"/>
     <use x="342.871094" xlink:href="#DejaVuSans-110"/>
     <use x="406.25" xlink:href="#DejaVuSans-116"/>
     <use x="445.458984" xlink:href="#DejaVuSans-32"/>
     <use x="477.246094" xlink:href="#DejaVuSans-48"/>
    </g>
   </g>
   <g id="text_9">
    <!-- 1 -->
    <g transform="translate(172.8 328.092904)scale(0.09 -0.09)">
     <use xlink:href="#DejaVuSans-49"/>
    </g>
   </g>
   <g id="text_10">
    <!-- purchase. 0 -->
    <g transform="translate(194.814247 328.092904)scale(0.09 -0.09)">
     <defs>
      <path d="M 8.5 21.578125 
L 8.5 54.6875 
L 17.484375 54.6875 
L 17.484375 21.921875 
Q 17.484375 14.15625 20.5 10.265625 
Q 23.53125 6.390625 29.59375 6.390625 
Q 36.859375 6.390625 41.078125 11.03125 
Q 45.3125 15.671875 45.3125 23.6875 
L 45.3125 54.6875 
L 54.296875 54.6875 
L 54.296875 0 
L 45.3125 0 
L 45.3125 8.40625 
Q 42.046875 3.421875 37.71875 1 
Q 33.40625 -1.421875 27.6875 -1.421875 
Q 18.265625 -1.421875 13.375 4.4375 
Q 8.5 10.296875 8.5 21.578125 
z
M 31.109375 56 
z
" id="DejaVuSans-117"/>
      <path d="M 54.890625 33.015625 
L 54.890625 0 
L 45.90625 0 
L 45.90625 32.71875 
Q 45.90625 40.484375 42.875 44.328125 
Q 39.84375 48.1875 33.796875 48.1875 
Q 26.515625 48.1875 22.3125 43.546875 
Q 18.109375 38.921875 18.109375 30.90625 
L 18.109375 0 
L 9.078125 0 
L 9.078125 75.984375 
L 18.109375 75.984375 
L 18.109375 46.1875 
Q 21.34375 51.125 25.703125 53.5625 
Q 30.078125 56 35.796875 56 
Q 45.21875 56 50.046875 50.171875 
Q 54.890625 44.34375 54.890625 33.015625 
z
" id="DejaVuSans-104"/>
      <path d="M 10.6875 12.40625 
L 21 12.40625 
L 21 0 
L 10.6875 0 
z
" id="DejaVuSans-46"/>
     </defs>
     <use xlink:href="#DejaVuSans-112"/>
     <use x="63.476562" xlink:href="#DejaVuSans-117"/>
     <use x="126.855469" xlink:href="#DejaVuSans-114"/>
     <use x="165.71875" xlink:href="#DejaVuSans-99"/>
     <use x="220.699219" xlink:href="#DejaVuSans-104"/>
     <use x="284.078125" xlink:href="#DejaVuSans-97"/>
     <use x="345.357422" xlink:href="#DejaVuSans-115"/>
     <use x="397.457031" xlink:href="#DejaVuSans-101"/>
     <use x="458.980469" xlink:href="#DejaVuSans-46"/>
     <use x="490.767578" xlink:href="#DejaVuSans-32"/>
     <use x="522.554688" xlink:href="#DejaVuSans-48"/>
    </g>
   </g>
   <g id="text_11">
    <!-- 1 -->
    <g transform="translate(172.8 291.402493)scale(0.09 -0.09)">
     <use xlink:href="#DejaVuSans-49"/>
    </g>
   </g>
   <g id="text_12">
    <!-- purchase. 0 -->
    <g transform="translate(194.814247 291.402493)scale(0.09 -0.09)">
     <use xlink:href="#DejaVuSans-112"/>
     <use x="63.476562" xlink:href="#DejaVuSans-117"/>
     <use x="126.855469" xlink:href="#DejaVuSans-114"/>
     <use x="165.71875" xlink:href="#DejaVuSans-99"/>
     <use x="220.699219" xlink:href="#DejaVuSans-104"/>
     <use x="284.078125" xlink:href="#DejaVuSans-97"/>
     <use x="345.357422" xlink:href="#DejaVuSans-115"/>
     <use x="397.457031" xlink:href="#DejaVuSans-101"/>
     <use x="458.980469" xlink:href="#DejaVuSans-46"/>
     <use x="490.767578" xlink:href="#DejaVuSans-32"/>
     <use x="522.554688" xlink:href="#DejaVuSans-48"/>
    </g>
   </g>
   <g id="text_13">
    <!-- 1 -->
    <g transform="translate(172.8 254.712082)scale(0.09 -0.09)">
     <use xlink:href="#DejaVuSans-49"/>
    </g>
   </g>
   <g id="text_14">
    <!-- quotatio. 0 -->
    <g transform="translate(194.814247 254.712082)scale(0.09 -0.09)">
     <defs>
      <path d="M 14.796875 27.296875 
Q 14.796875 17.390625 18.875 11.75 
Q 22.953125 6.109375 30.078125 6.109375 
Q 37.203125 6.109375 41.296875 11.75 
Q 45.40625 17.390625 45.40625 27.296875 
Q 45.40625 37.203125 41.296875 42.84375 
Q 37.203125 48.484375 30.078125 48.484375 
Q 22.953125 48.484375 18.875 42.84375 
Q 14.796875 37.203125 14.796875 27.296875 
z
M 45.40625 8.203125 
Q 42.578125 3.328125 38.25 0.953125 
Q 33.9375 -1.421875 27.875 -1.421875 
Q 17.96875 -1.421875 11.734375 6.484375 
Q 5.515625 14.40625 5.515625 27.296875 
Q 5.515625 40.1875 11.734375 48.09375 
Q 17.96875 56 27.875 56 
Q 33.9375 56 38.25 53.625 
Q 42.578125 51.265625 45.40625 46.390625 
L 45.40625 54.6875 
L 54.390625 54.6875 
L 54.390625 -20.796875 
L 45.40625 -20.796875 
z
" id="DejaVuSans-113"/>
     </defs>
     <use xlink:href="#DejaVuSans-113"/>
     <use x="63.476562" xlink:href="#DejaVuSans-117"/>
     <use x="126.855469" xlink:href="#DejaVuSans-111"/>
     <use x="188.037109" xlink:href="#DejaVuSans-116"/>
     <use x="227.246094" xlink:href="#DejaVuSans-97"/>
     <use x="288.525391" xlink:href="#DejaVuSans-116"/>
     <use x="327.734375" xlink:href="#DejaVuSans-105"/>
     <use x="355.517578" xlink:href="#DejaVuSans-111"/>
     <use x="414.949219" xlink:href="#DejaVuSans-46"/>
     <use x="446.736328" xlink:href="#DejaVuSans-32"/>
     <use x="478.523438" xlink:href="#DejaVuSans-48"/>
    </g>
   </g>
   <g id="text_15">
    <!-- Frequency: 0.1 -->
    <g transform="translate(191.145205 232.697836)scale(0.09 -0.09)">
     <defs>
      <path d="M 9.8125 72.90625 
L 51.703125 72.90625 
L 51.703125 64.59375 
L 19.671875 64.59375 
L 19.671875 43.109375 
L 48.578125 43.109375 
L 48.578125 34.8125 
L 19.671875 34.8125 
L 19.671875 0 
L 9.8125 0 
z
" id="DejaVuSans-70"/>
      <path d="M 11.71875 12.40625 
L 22.015625 12.40625 
L 22.015625 0 
L 11.71875 0 
z
M 11.71875 51.703125 
L 22.015625 51.703125 
L 22.015625 39.3125 
L 11.71875 39.3125 
z
" id="DejaVuSans-58"/>
     </defs>
     <use xlink:href="#DejaVuSans-70"/>
     <use x="50.269531" xlink:href="#DejaVuSans-114"/>
     <use x="89.132812" xlink:href="#DejaVuSans-101"/>
     <use x="150.65625" xlink:href="#DejaVuSans-113"/>
     <use x="214.132812" xlink:href="#DejaVuSans-117"/>
     <use x="277.511719" xlink:href="#DejaVuSans-101"/>
     <use x="339.035156" xlink:href="#DejaVuSans-110"/>
     <use x="402.414062" xlink:href="#DejaVuSans-99"/>
     <use x="457.394531" xlink:href="#DejaVuSans-121"/>
     <use x="509.324219" xlink:href="#DejaVuSans-58"/>
     <use x="543.015625" xlink:href="#DejaVuSans-32"/>
     <use x="574.802734" xlink:href="#DejaVuSans-48"/>
     <use x="638.425781" xlink:href="#DejaVuSans-46"/>
     <use x="670.212891" xlink:href="#DejaVuSans-49"/>
    </g>
   </g>
   <g id="text_16">
    <!-- Super Variant: (11,) -->
    <g transform="translate(191.145205 216.920959)scale(0.108 -0.108)">
     <defs>
      <path d="M 59.90625 70.609375 
L 59.90625 55.171875 
Q 53.90625 57.859375 48.1875 59.21875 
Q 42.484375 60.59375 37.40625 60.59375 
Q 30.671875 60.59375 27.4375 58.734375 
Q 24.21875 56.890625 24.21875 52.984375 
Q 24.21875 50.046875 26.390625 48.40625 
Q 28.5625 46.78125 34.28125 45.609375 
L 42.28125 44 
Q 54.4375 41.546875 59.5625 36.5625 
Q 64.703125 31.59375 64.703125 22.40625 
Q 64.703125 10.359375 57.546875 4.46875 
Q 50.390625 -1.421875 35.6875 -1.421875 
Q 28.765625 -1.421875 21.78125 -0.09375 
Q 14.796875 1.21875 7.8125 3.8125 
L 7.8125 19.671875 
Q 14.796875 15.96875 21.3125 14.078125 
Q 27.828125 12.203125 33.890625 12.203125 
Q 40.046875 12.203125 43.3125 14.25 
Q 46.578125 16.3125 46.578125 20.125 
Q 46.578125 23.53125 44.359375 25.390625 
Q 42.140625 27.25 35.5 28.71875 
L 28.21875 30.328125 
Q 17.28125 32.671875 12.21875 37.796875 
Q 7.171875 42.921875 7.171875 51.609375 
Q 7.171875 62.5 14.203125 68.359375 
Q 21.234375 74.21875 34.421875 74.21875 
Q 40.4375 74.21875 46.78125 73.3125 
Q 53.125 72.40625 59.90625 70.609375 
z
" id="DejaVuSans-Bold-83"/>
      <path d="M 7.8125 21.296875 
L 7.8125 54.6875 
L 25.390625 54.6875 
L 25.390625 49.21875 
Q 25.390625 44.78125 25.34375 38.0625 
Q 25.296875 31.34375 25.296875 29.109375 
Q 25.296875 22.515625 25.640625 19.609375 
Q 25.984375 16.703125 26.8125 15.375 
Q 27.875 13.671875 29.609375 12.734375 
Q 31.34375 11.8125 33.59375 11.8125 
Q 39.0625 11.8125 42.1875 16.015625 
Q 45.3125 20.21875 45.3125 27.6875 
L 45.3125 54.6875 
L 62.796875 54.6875 
L 62.796875 0 
L 45.3125 0 
L 45.3125 7.90625 
Q 41.359375 3.125 36.9375 0.84375 
Q 32.515625 -1.421875 27.203125 -1.421875 
Q 17.71875 -1.421875 12.765625 4.390625 
Q 7.8125 10.203125 7.8125 21.296875 
z
" id="DejaVuSans-Bold-117"/>
      <path d="M 25.875 7.90625 
L 25.875 -20.796875 
L 8.40625 -20.796875 
L 8.40625 54.6875 
L 25.875 54.6875 
L 25.875 46.6875 
Q 29.5 51.46875 33.890625 53.734375 
Q 38.28125 56 44 56 
Q 54.109375 56 60.59375 47.96875 
Q 67.09375 39.9375 67.09375 27.296875 
Q 67.09375 14.65625 60.59375 6.609375 
Q 54.109375 -1.421875 44 -1.421875 
Q 38.28125 -1.421875 33.890625 0.84375 
Q 29.5 3.125 25.875 7.90625 
z
M 37.5 43.3125 
Q 31.890625 43.3125 28.875 39.1875 
Q 25.875 35.0625 25.875 27.296875 
Q 25.875 19.53125 28.875 15.40625 
Q 31.890625 11.28125 37.5 11.28125 
Q 43.109375 11.28125 46.0625 15.375 
Q 49.03125 19.484375 49.03125 27.296875 
Q 49.03125 35.109375 46.0625 39.203125 
Q 43.109375 43.3125 37.5 43.3125 
z
" id="DejaVuSans-Bold-112"/>
      <path d="M 62.984375 27.484375 
L 62.984375 22.515625 
L 22.125 22.515625 
Q 22.75 16.359375 26.5625 13.28125 
Q 30.375 10.203125 37.203125 10.203125 
Q 42.71875 10.203125 48.5 11.84375 
Q 54.296875 13.484375 60.40625 16.796875 
L 60.40625 3.328125 
Q 54.203125 0.984375 48 -0.21875 
Q 41.796875 -1.421875 35.59375 -1.421875 
Q 20.75 -1.421875 12.515625 6.125 
Q 4.296875 13.671875 4.296875 27.296875 
Q 4.296875 40.671875 12.375 48.328125 
Q 20.453125 56 34.625 56 
Q 47.515625 56 55.25 48.234375 
Q 62.984375 40.484375 62.984375 27.484375 
z
M 45.015625 33.296875 
Q 45.015625 38.28125 42.109375 41.328125 
Q 39.203125 44.390625 34.515625 44.390625 
Q 29.4375 44.390625 26.265625 41.53125 
Q 23.09375 38.671875 22.3125 33.296875 
z
" id="DejaVuSans-Bold-101"/>
      <path d="M 49.03125 39.796875 
Q 46.734375 40.875 44.453125 41.375 
Q 42.1875 41.890625 39.890625 41.890625 
Q 33.15625 41.890625 29.515625 37.5625 
Q 25.875 33.25 25.875 25.203125 
L 25.875 0 
L 8.40625 0 
L 8.40625 54.6875 
L 25.875 54.6875 
L 25.875 45.703125 
Q 29.25 51.078125 33.609375 53.53125 
Q 37.984375 56 44.09375 56 
Q 44.96875 56 45.984375 55.921875 
Q 47.015625 55.859375 48.96875 55.609375 
z
" id="DejaVuSans-Bold-114"/>
      <path id="DejaVuSans-Bold-32"/>
      <path d="M 0.484375 72.90625 
L 19.390625 72.90625 
L 38.71875 19.09375 
L 58.015625 72.90625 
L 76.90625 72.90625 
L 49.90625 0 
L 27.484375 0 
z
" id="DejaVuSans-Bold-86"/>
      <path d="M 32.90625 24.609375 
Q 27.4375 24.609375 24.671875 22.75 
Q 21.921875 20.90625 21.921875 17.28125 
Q 21.921875 13.96875 24.140625 12.078125 
Q 26.375 10.203125 30.328125 10.203125 
Q 35.25 10.203125 38.625 13.734375 
Q 42 17.28125 42 22.609375 
L 42 24.609375 
z
M 59.625 31.203125 
L 59.625 0 
L 42 0 
L 42 8.109375 
Q 38.484375 3.125 34.078125 0.84375 
Q 29.6875 -1.421875 23.390625 -1.421875 
Q 14.890625 -1.421875 9.59375 3.53125 
Q 4.296875 8.5 4.296875 16.40625 
Q 4.296875 26.03125 10.90625 30.515625 
Q 17.53125 35.015625 31.6875 35.015625 
L 42 35.015625 
L 42 36.375 
Q 42 40.53125 38.71875 42.453125 
Q 35.453125 44.390625 28.515625 44.390625 
Q 22.90625 44.390625 18.0625 43.265625 
Q 13.234375 42.140625 9.078125 39.890625 
L 9.078125 53.21875 
Q 14.703125 54.59375 20.359375 55.296875 
Q 26.03125 56 31.6875 56 
Q 46.484375 56 53.046875 50.171875 
Q 59.625 44.34375 59.625 31.203125 
z
" id="DejaVuSans-Bold-97"/>
      <path d="M 8.40625 54.6875 
L 25.875 54.6875 
L 25.875 0 
L 8.40625 0 
z
M 8.40625 75.984375 
L 25.875 75.984375 
L 25.875 61.71875 
L 8.40625 61.71875 
z
" id="DejaVuSans-Bold-105"/>
      <path d="M 63.375 33.296875 
L 63.375 0 
L 45.796875 0 
L 45.796875 5.421875 
L 45.796875 25.484375 
Q 45.796875 32.5625 45.484375 35.25 
Q 45.171875 37.9375 44.390625 39.203125 
Q 43.359375 40.921875 41.59375 41.875 
Q 39.84375 42.828125 37.59375 42.828125 
Q 32.125 42.828125 29 38.59375 
Q 25.875 34.375 25.875 26.90625 
L 25.875 0 
L 8.40625 0 
L 8.40625 54.6875 
L 25.875 54.6875 
L 25.875 46.6875 
Q 29.828125 51.46875 34.265625 53.734375 
Q 38.71875 56 44.09375 56 
Q 53.5625 56 58.46875 50.1875 
Q 63.375 44.390625 63.375 33.296875 
z
" id="DejaVuSans-Bold-110"/>
      <path d="M 27.484375 70.21875 
L 27.484375 54.6875 
L 45.515625 54.6875 
L 45.515625 42.1875 
L 27.484375 42.1875 
L 27.484375 19 
Q 27.484375 15.1875 29 13.84375 
Q 30.515625 12.5 35.015625 12.5 
L 44 12.5 
L 44 0 
L 29 0 
Q 18.65625 0 14.328125 4.3125 
Q 10.015625 8.640625 10.015625 19 
L 10.015625 42.1875 
L 1.3125 42.1875 
L 1.3125 54.6875 
L 10.015625 54.6875 
L 10.015625 70.21875 
z
" id="DejaVuSans-Bold-116"/>
      <path d="M 11.1875 54.6875 
L 28.8125 54.6875 
L 28.8125 35.796875 
L 11.1875 35.796875 
z
M 11.1875 18.890625 
L 28.8125 18.890625 
L 28.8125 0 
L 11.1875 0 
z
" id="DejaVuSans-Bold-58"/>
      <path d="M 37.703125 -13.1875 
L 23.1875 -13.1875 
Q 15.71875 -1.125 12.15625 9.734375 
Q 8.59375 20.609375 8.59375 31.296875 
Q 8.59375 42 12.171875 52.953125 
Q 15.765625 63.921875 23.1875 75.875 
L 37.703125 75.875 
Q 31.453125 64.3125 28.328125 53.25 
Q 25.203125 42.1875 25.203125 31.390625 
Q 25.203125 20.609375 28.296875 9.515625 
Q 31.390625 -1.5625 37.703125 -13.1875 
z
" id="DejaVuSans-Bold-40"/>
      <path d="M 11.71875 12.984375 
L 28.328125 12.984375 
L 28.328125 60.109375 
L 11.28125 56.59375 
L 11.28125 69.390625 
L 28.21875 72.90625 
L 46.09375 72.90625 
L 46.09375 12.984375 
L 62.703125 12.984375 
L 62.703125 0 
L 11.71875 0 
z
" id="DejaVuSans-Bold-49"/>
      <path d="M 10.203125 18.890625 
L 27.78125 18.890625 
L 27.78125 4 
L 15.71875 -14.203125 
L 5.328125 -14.203125 
L 10.203125 4 
z
" id="DejaVuSans-Bold-44"/>
      <path d="M 8.015625 -13.1875 
Q 14.265625 -1.5625 17.390625 9.515625 
Q 20.515625 20.609375 20.515625 31.390625 
Q 20.515625 42.1875 17.390625 53.25 
Q 14.265625 64.3125 8.015625 75.875 
L 22.515625 75.875 
Q 29.9375 63.921875 33.515625 52.953125 
Q 37.109375 42 37.109375 31.296875 
Q 37.109375 20.609375 33.546875 9.734375 
Q 29.984375 -1.125 22.515625 -13.1875 
z
" id="DejaVuSans-Bold-41"/>
     </defs>
     <use xlink:href="#DejaVuSans-Bold-83"/>
     <use x="72.021484" xlink:href="#DejaVuSans-Bold-117"/>
     <use x="143.212891" xlink:href="#DejaVuSans-Bold-112"/>
     <use x="214.794922" xlink:href="#DejaVuSans-Bold-101"/>
     <use x="282.617188" xlink:href="#DejaVuSans-Bold-114"/>
     <use x="331.933594" xlink:href="#DejaVuSans-Bold-32"/>
     <use x="366.748047" xlink:href="#DejaVuSans-Bold-86"/>
     <use x="438.640625" xlink:href="#DejaVuSans-Bold-97"/>
     <use x="506.121094" xlink:href="#DejaVuSans-Bold-114"/>
     <use x="555.4375" xlink:href="#DejaVuSans-Bold-105"/>
     <use x="589.714844" xlink:href="#DejaVuSans-Bold-97"/>
     <use x="657.195312" xlink:href="#DejaVuSans-Bold-110"/>
     <use x="728.386719" xlink:href="#DejaVuSans-Bold-116"/>
     <use x="776.189453" xlink:href="#DejaVuSans-Bold-58"/>
     <use x="816.179688" xlink:href="#DejaVuSans-Bold-32"/>
     <use x="850.994141" xlink:href="#DejaVuSans-Bold-40"/>
     <use x="896.697266" xlink:href="#DejaVuSans-Bold-49"/>
     <use x="966.277344" xlink:href="#DejaVuSans-Bold-49"/>
     <use x="1035.857422" xlink:href="#DejaVuSans-Bold-44"/>
     <use x="1073.845703" xlink:href="#DejaVuSans-Bold-41"/>
    </g>
   </g>
   <g id="patch_91">
    <path clip-path="url(#p81faf59973)" d="M 576.394521 492.099041 
L 686.465753 492.099041 
L 691.052055 473.753836 
L 686.465753 455.40863 
L 576.394521 455.40863 
L 580.980822 473.753836 
z
" style="fill:none;stroke:#000000;stroke-linejoin:miter;stroke-width:1.3;"/>
   </g>
   <g id="patch_92">
    <path clip-path="url(#p81faf59973)" d="M 686.465753 492.099041 
L 796.536986 492.099041 
L 801.123288 473.753836 
L 796.536986 455.40863 
L 686.465753 455.40863 
L 691.052055 473.753836 
z
" style="fill:none;stroke:#000000;stroke-linejoin:miter;stroke-width:1.3;"/>
   </g>
   <g id="patch_93">
    <path clip-path="url(#p81faf59973)" d="M 796.536986 492.099041 
L 906.608219 492.099041 
L 911.194521 473.753836 
L 906.608219 455.40863 
L 796.536986 455.40863 
L 801.123288 473.753836 
z
" style="fill:none;stroke:#000000;stroke-linejoin:miter;stroke-width:1.3;"/>
   </g>
   <g id="patch_94">
    <path clip-path="url(#p81faf59973)" d="M 906.608219 492.099041 
L 1016.679452 492.099041 
L 1021.265753 473.753836 
L 1016.679452 455.40863 
L 906.608219 455.40863 
L 911.194521 473.753836 
z
" style="fill:none;stroke:#000000;stroke-linejoin:miter;stroke-width:1.3;"/>
   </g>
   <g id="patch_95">
    <path clip-path="url(#p81faf59973)" d="M 1016.679452 492.099041 
L 1126.750685 492.099041 
L 1131.336986 473.753836 
L 1126.750685 455.40863 
L 1016.679452 455.40863 
L 1021.265753 473.753836 
z
" style="fill:none;stroke:#000000;stroke-linejoin:miter;stroke-width:1.3;"/>
   </g>
   <g id="patch_96">
    <path clip-path="url(#p81faf59973)" d="M 1126.750685 492.099041 
L 1236.821918 492.099041 
L 1241.408219 473.753836 
L 1236.821918 455.40863 
L 1126.750685 455.40863 
L 1131.336986 473.753836 
z
" style="fill:none;stroke:#000000;stroke-linejoin:miter;stroke-width:1.3;"/>
   </g>
   <g id="patch_97">
    <path clip-path="url(#p81faf59973)" d="M 686.465753 455.40863 
L 796.536986 455.40863 
L 801.123288 437.063425 
L 796.536986 418.718219 
L 686.465753 418.718219 
L 691.052055 437.063425 
z
" style="fill:none;stroke:#000000;stroke-linejoin:miter;stroke-width:1.3;"/>
   </g>
   <g id="patch_98">
    <path clip-path="url(#p81faf59973)" d="M 796.536986 455.40863 
L 906.608219 455.40863 
L 911.194521 437.063425 
L 906.608219 418.718219 
L 796.536986 418.718219 
L 801.123288 437.063425 
z
" style="fill:none;stroke:#000000;stroke-linejoin:miter;stroke-width:1.3;"/>
   </g>
   <g id="patch_99">
    <path clip-path="url(#p81faf59973)" d="M 906.608219 455.40863 
L 1016.679452 455.40863 
L 1021.265753 437.063425 
L 1016.679452 418.718219 
L 906.608219 418.718219 
L 911.194521 437.063425 
z
" style="fill:none;stroke:#000000;stroke-linejoin:miter;stroke-width:1.3;"/>
   </g>
   <g id="patch_100">
    <path clip-path="url(#p81faf59973)" d="M 1016.679452 455.40863 
L 1126.750685 455.40863 
L 1131.336986 437.063425 
L 1126.750685 418.718219 
L 1016.679452 418.718219 
L 1021.265753 437.063425 
z
" style="fill:none;stroke:#000000;stroke-linejoin:miter;stroke-width:1.3;"/>
   </g>
   <g id="patch_101">
    <path clip-path="url(#p81faf59973)" d="M 1126.750685 455.40863 
L 1236.821918 455.40863 
L 1241.408219 437.063425 
L 1236.821918 418.718219 
L 1126.750685 418.718219 
L 1131.336986 437.063425 
z
" style="fill:none;stroke:#000000;stroke-linejoin:miter;stroke-width:1.3;"/>
   </g>
   <g id="patch_102">
    <path clip-path="url(#p81faf59973)" d="M 246.180822 418.718219 
L 356.252055 418.718219 
L 360.838356 400.373014 
L 356.252055 382.027808 
L 246.180822 382.027808 
L 250.767123 400.373014 
z
" style="fill:none;stroke:#000000;stroke-linejoin:miter;stroke-width:1.3;"/>
   </g>
   <g id="patch_103">
    <path clip-path="url(#p81faf59973)" d="M 356.252055 418.718219 
L 466.323288 418.718219 
L 470.909589 400.373014 
L 466.323288 382.027808 
L 356.252055 382.027808 
L 360.838356 400.373014 
z
" style="fill:none;stroke:#000000;stroke-linejoin:miter;stroke-width:1.3;"/>
   </g>
   <g id="patch_104">
    <path clip-path="url(#p81faf59973)" d="M 906.608219 382.027808 
L 1016.679452 382.027808 
L 1021.265753 363.682603 
L 1016.679452 345.337397 
L 906.608219 345.337397 
L 911.194521 363.682603 
z
" style="fill:none;stroke:#000000;stroke-linejoin:miter;stroke-width:1.3;"/>
   </g>
   <g id="patch_105">
    <path clip-path="url(#p81faf59973)" d="M 1016.679452 382.027808 
L 1126.750685 382.027808 
L 1131.336986 363.682603 
L 1126.750685 345.337397 
L 1016.679452 345.337397 
L 1021.265753 363.682603 
z
" style="fill:none;stroke:#000000;stroke-linejoin:miter;stroke-width:1.3;"/>
   </g>
   <g id="patch_106">
    <path clip-path="url(#p81faf59973)" d="M 1126.750685 382.027808 
L 1236.821918 382.027808 
L 1241.408219 363.682603 
L 1236.821918 345.337397 
L 1126.750685 345.337397 
L 1131.336986 363.682603 
z
" style="fill:none;stroke:#000000;stroke-linejoin:miter;stroke-width:1.3;"/>
   </g>
   <g id="patch_107">
    <path clip-path="url(#p81faf59973)" d="M 356.252055 345.337397 
L 466.323288 345.337397 
L 470.909589 326.992192 
L 466.323288 308.646986 
L 356.252055 308.646986 
L 360.838356 326.992192 
z
" style="fill:none;stroke:#000000;stroke-linejoin:miter;stroke-width:1.3;"/>
   </g>
   <g id="patch_108">
    <path clip-path="url(#p81faf59973)" d="M 686.465753 345.337397 
L 796.536986 345.337397 
L 801.123288 326.992192 
L 796.536986 308.646986 
L 686.465753 308.646986 
L 691.052055 326.992192 
z
" style="fill:none;stroke:#000000;stroke-linejoin:miter;stroke-width:1.3;"/>
   </g>
   <g id="patch_109">
    <path clip-path="url(#p81faf59973)" d="M 796.536986 345.337397 
L 906.608219 345.337397 
L 911.194521 326.992192 
L 906.608219 308.646986 
L 796.536986 308.646986 
L 801.123288 326.992192 
z
" style="fill:none;stroke:#000000;stroke-linejoin:miter;stroke-width:1.3;"/>
   </g>
   <g id="patch_110">
    <path clip-path="url(#p81faf59973)" d="M 906.608219 345.337397 
L 1016.679452 345.337397 
L 1021.265753 326.992192 
L 1016.679452 308.646986 
L 906.608219 308.646986 
L 911.194521 326.992192 
z
" style="fill:none;stroke:#000000;stroke-linejoin:miter;stroke-width:1.3;"/>
   </g>
   <g id="patch_111">
    <path clip-path="url(#p81faf59973)" d="M 1016.679452 345.337397 
L 1126.750685 345.337397 
L 1131.336986 326.992192 
L 1126.750685 308.646986 
L 1016.679452 308.646986 
L 1021.265753 326.992192 
z
" style="fill:none;stroke:#000000;stroke-linejoin:miter;stroke-width:1.3;"/>
   </g>
   <g id="patch_112">
    <path clip-path="url(#p81faf59973)" d="M 1126.750685 345.337397 
L 1236.821918 345.337397 
L 1241.408219 326.992192 
L 1236.821918 308.646986 
L 1126.750685 308.646986 
L 1131.336986 326.992192 
z
" style="fill:none;stroke:#000000;stroke-linejoin:miter;stroke-width:1.3;"/>
   </g>
   <g id="patch_113">
    <path clip-path="url(#p81faf59973)" d="M 246.180822 308.646986 
L 356.252055 308.646986 
L 360.838356 290.301781 
L 356.252055 271.956575 
L 246.180822 271.956575 
L 250.767123 290.301781 
z
" style="fill:none;stroke:#000000;stroke-linejoin:miter;stroke-width:1.3;"/>
   </g>
   <g id="patch_114">
    <path clip-path="url(#p81faf59973)" d="M 356.252055 308.646986 
L 466.323288 308.646986 
L 470.909589 290.301781 
L 466.323288 271.956575 
L 356.252055 271.956575 
L 360.838356 290.301781 
z
" style="fill:none;stroke:#000000;stroke-linejoin:miter;stroke-width:1.3;"/>
   </g>
   <g id="patch_115">
    <path clip-path="url(#p81faf59973)" d="M 466.323288 308.646986 
L 576.394521 308.646986 
L 580.980822 290.301781 
L 576.394521 271.956575 
L 466.323288 271.956575 
L 470.909589 290.301781 
z
" style="fill:none;stroke:#000000;stroke-linejoin:miter;stroke-width:1.3;"/>
   </g>
   <g id="patch_116">
    <path clip-path="url(#p81faf59973)" d="M 466.323288 271.956575 
L 576.394521 271.956575 
L 580.980822 253.61137 
L 576.394521 235.266164 
L 466.323288 235.266164 
L 470.909589 253.61137 
z
" style="fill:none;stroke:#000000;stroke-linejoin:miter;stroke-width:1.3;"/>
   </g>
   <g id="patch_117">
    <path clip-path="url(#p81faf59973)" d="M 576.394521 271.956575 
L 686.465753 271.956575 
L 691.052055 253.61137 
L 686.465753 235.266164 
L 576.394521 235.266164 
L 580.980822 253.61137 
z
" style="fill:none;stroke:#000000;stroke-linejoin:miter;stroke-width:1.3;"/>
   </g>
   <g id="patch_118">
    <path clip-path="url(#p81faf59973)" d="M 686.465753 271.956575 
L 796.536986 271.956575 
L 801.123288 253.61137 
L 796.536986 235.266164 
L 686.465753 235.266164 
L 691.052055 253.61137 
z
" style="fill:none;stroke:#000000;stroke-linejoin:miter;stroke-width:1.3;"/>
   </g>
   <g id="text_17">
    <!-- Create Good... -->
    <g transform="translate(583.732603 474.854548)scale(0.09 -0.09)">
     <defs>
      <path d="M 64.40625 67.28125 
L 64.40625 56.890625 
Q 59.421875 61.53125 53.78125 63.8125 
Q 48.140625 66.109375 41.796875 66.109375 
Q 29.296875 66.109375 22.65625 58.46875 
Q 16.015625 50.828125 16.015625 36.375 
Q 16.015625 21.96875 22.65625 14.328125 
Q 29.296875 6.6875 41.796875 6.6875 
Q 48.140625 6.6875 53.78125 8.984375 
Q 59.421875 11.28125 64.40625 15.921875 
L 64.40625 5.609375 
Q 59.234375 2.09375 53.4375 0.328125 
Q 47.65625 -1.421875 41.21875 -1.421875 
Q 24.65625 -1.421875 15.125 8.703125 
Q 5.609375 18.84375 5.609375 36.375 
Q 5.609375 53.953125 15.125 64.078125 
Q 24.65625 74.21875 41.21875 74.21875 
Q 47.75 74.21875 53.53125 72.484375 
Q 59.328125 70.75 64.40625 67.28125 
z
" id="DejaVuSans-67"/>
      <path d="M 59.515625 10.40625 
L 59.515625 29.984375 
L 43.40625 29.984375 
L 43.40625 38.09375 
L 69.28125 38.09375 
L 69.28125 6.78125 
Q 63.578125 2.734375 56.6875 0.65625 
Q 49.8125 -1.421875 42 -1.421875 
Q 24.90625 -1.421875 15.25 8.5625 
Q 5.609375 18.5625 5.609375 36.375 
Q 5.609375 54.25 15.25 64.234375 
Q 24.90625 74.21875 42 74.21875 
Q 49.125 74.21875 55.546875 72.453125 
Q 61.96875 70.703125 67.390625 67.28125 
L 67.390625 56.78125 
Q 61.921875 61.421875 55.765625 63.765625 
Q 49.609375 66.109375 42.828125 66.109375 
Q 29.4375 66.109375 22.71875 58.640625 
Q 16.015625 51.171875 16.015625 36.375 
Q 16.015625 21.625 22.71875 14.15625 
Q 29.4375 6.6875 42.828125 6.6875 
Q 48.046875 6.6875 52.140625 7.59375 
Q 56.25 8.5 59.515625 10.40625 
z
" id="DejaVuSans-71"/>
     </defs>
     <use xlink:href="#DejaVuSans-67"/>
     <use x="69.824219" xlink:href="#DejaVuSans-114"/>
     <use x="108.6875" xlink:href="#DejaVuSans-101"/>
     <use x="170.210938" xlink:href="#DejaVuSans-97"/>
     <use x="231.490234" xlink:href="#DejaVuSans-116"/>
     <use x="270.699219" xlink:href="#DejaVuSans-101"/>
     <use x="332.222656" xlink:href="#DejaVuSans-32"/>
     <use x="364.009766" xlink:href="#DejaVuSans-71"/>
     <use x="441.5" xlink:href="#DejaVuSans-111"/>
     <use x="502.681641" xlink:href="#DejaVuSans-111"/>
     <use x="563.863281" xlink:href="#DejaVuSans-100"/>
     <use x="627.339844" xlink:href="#DejaVuSans-46"/>
     <use x="659.126953" xlink:href="#DejaVuSans-46"/>
     <use x="690.914062" xlink:href="#DejaVuSans-46"/>
    </g>
   </g>
   <g id="text_18">
    <!-- Create Invo... -->
    <g transform="translate(693.803836 474.854548)scale(0.09 -0.09)">
     <defs>
      <path d="M 9.8125 72.90625 
L 19.671875 72.90625 
L 19.671875 0 
L 9.8125 0 
z
" id="DejaVuSans-73"/>
     </defs>
     <use xlink:href="#DejaVuSans-67"/>
     <use x="69.824219" xlink:href="#DejaVuSans-114"/>
     <use x="108.6875" xlink:href="#DejaVuSans-101"/>
     <use x="170.210938" xlink:href="#DejaVuSans-97"/>
     <use x="231.490234" xlink:href="#DejaVuSans-116"/>
     <use x="270.699219" xlink:href="#DejaVuSans-101"/>
     <use x="332.222656" xlink:href="#DejaVuSans-32"/>
     <use x="364.009766" xlink:href="#DejaVuSans-73"/>
     <use x="393.501953" xlink:href="#DejaVuSans-110"/>
     <use x="456.880859" xlink:href="#DejaVuSans-118"/>
     <use x="516.060547" xlink:href="#DejaVuSans-111"/>
     <use x="575.492188" xlink:href="#DejaVuSans-46"/>
     <use x="607.279297" xlink:href="#DejaVuSans-46"/>
     <use x="639.066406" xlink:href="#DejaVuSans-46"/>
    </g>
   </g>
   <g id="text_19">
    <!-- Perform Two... -->
    <g transform="translate(803.875068 474.854548)scale(0.09 -0.09)">
     <defs>
      <path d="M 19.671875 64.796875 
L 19.671875 37.40625 
L 32.078125 37.40625 
Q 38.96875 37.40625 42.71875 40.96875 
Q 46.484375 44.53125 46.484375 51.125 
Q 46.484375 57.671875 42.71875 61.234375 
Q 38.96875 64.796875 32.078125 64.796875 
z
M 9.8125 72.90625 
L 32.078125 72.90625 
Q 44.34375 72.90625 50.609375 67.359375 
Q 56.890625 61.8125 56.890625 51.125 
Q 56.890625 40.328125 50.609375 34.8125 
Q 44.34375 29.296875 32.078125 29.296875 
L 19.671875 29.296875 
L 19.671875 0 
L 9.8125 0 
z
" id="DejaVuSans-80"/>
      <path d="M 37.109375 75.984375 
L 37.109375 68.5 
L 28.515625 68.5 
Q 23.6875 68.5 21.796875 66.546875 
Q 19.921875 64.59375 19.921875 59.515625 
L 19.921875 54.6875 
L 34.71875 54.6875 
L 34.71875 47.703125 
L 19.921875 47.703125 
L 19.921875 0 
L 10.890625 0 
L 10.890625 47.703125 
L 2.296875 47.703125 
L 2.296875 54.6875 
L 10.890625 54.6875 
L 10.890625 58.5 
Q 10.890625 67.625 15.140625 71.796875 
Q 19.390625 75.984375 28.609375 75.984375 
z
" id="DejaVuSans-102"/>
      <path d="M -0.296875 72.90625 
L 61.375 72.90625 
L 61.375 64.59375 
L 35.5 64.59375 
L 35.5 0 
L 25.59375 0 
L 25.59375 64.59375 
L -0.296875 64.59375 
z
" id="DejaVuSans-84"/>
      <path d="M 4.203125 54.6875 
L 13.1875 54.6875 
L 24.421875 12.015625 
L 35.59375 54.6875 
L 46.1875 54.6875 
L 57.421875 12.015625 
L 68.609375 54.6875 
L 77.59375 54.6875 
L 63.28125 0 
L 52.6875 0 
L 40.921875 44.828125 
L 29.109375 0 
L 18.5 0 
z
" id="DejaVuSans-119"/>
     </defs>
     <use xlink:href="#DejaVuSans-80"/>
     <use x="56.677734" xlink:href="#DejaVuSans-101"/>
     <use x="118.201172" xlink:href="#DejaVuSans-114"/>
     <use x="159.314453" xlink:href="#DejaVuSans-102"/>
     <use x="194.519531" xlink:href="#DejaVuSans-111"/>
     <use x="255.701172" xlink:href="#DejaVuSans-114"/>
     <use x="295.064453" xlink:href="#DejaVuSans-109"/>
     <use x="392.476562" xlink:href="#DejaVuSans-32"/>
     <use x="424.263672" xlink:href="#DejaVuSans-84"/>
     <use x="468.847656" xlink:href="#DejaVuSans-119"/>
     <use x="550.634766" xlink:href="#DejaVuSans-111"/>
     <use x="610.066406" xlink:href="#DejaVuSans-46"/>
     <use x="641.853516" xlink:href="#DejaVuSans-46"/>
     <use x="673.640625" xlink:href="#DejaVuSans-46"/>
    </g>
   </g>
   <g id="text_20">
    <!-- Execute Pay... -->
    <g transform="translate(913.946301 474.854548)scale(0.09 -0.09)">
     <defs>
      <path d="M 9.8125 72.90625 
L 55.90625 72.90625 
L 55.90625 64.59375 
L 19.671875 64.59375 
L 19.671875 43.015625 
L 54.390625 43.015625 
L 54.390625 34.71875 
L 19.671875 34.71875 
L 19.671875 8.296875 
L 56.78125 8.296875 
L 56.78125 0 
L 9.8125 0 
z
" id="DejaVuSans-69"/>
      <path d="M 54.890625 54.6875 
L 35.109375 28.078125 
L 55.90625 0 
L 45.3125 0 
L 29.390625 21.484375 
L 13.484375 0 
L 2.875 0 
L 24.125 28.609375 
L 4.6875 54.6875 
L 15.28125 54.6875 
L 29.78125 35.203125 
L 44.28125 54.6875 
z
" id="DejaVuSans-120"/>
     </defs>
     <use xlink:href="#DejaVuSans-69"/>
     <use x="63.183594" xlink:href="#DejaVuSans-120"/>
     <use x="119.238281" xlink:href="#DejaVuSans-101"/>
     <use x="180.761719" xlink:href="#DejaVuSans-99"/>
     <use x="235.742188" xlink:href="#DejaVuSans-117"/>
     <use x="299.121094" xlink:href="#DejaVuSans-116"/>
     <use x="338.330078" xlink:href="#DejaVuSans-101"/>
     <use x="399.853516" xlink:href="#DejaVuSans-32"/>
     <use x="431.640625" xlink:href="#DejaVuSans-80"/>
     <use x="487.443359" xlink:href="#DejaVuSans-97"/>
     <use x="548.722656" xlink:href="#DejaVuSans-121"/>
     <use x="593.652344" xlink:href="#DejaVuSans-46"/>
     <use x="625.439453" xlink:href="#DejaVuSans-46"/>
     <use x="657.226562" xlink:href="#DejaVuSans-46"/>
    </g>
   </g>
   <g id="text_21">
    <!-- Execute Pay... -->
    <g transform="translate(1024.017534 474.854548)scale(0.09 -0.09)">
     <use xlink:href="#DejaVuSans-69"/>
     <use x="63.183594" xlink:href="#DejaVuSans-120"/>
     <use x="119.238281" xlink:href="#DejaVuSans-101"/>
     <use x="180.761719" xlink:href="#DejaVuSans-99"/>
     <use x="235.742188" xlink:href="#DejaVuSans-117"/>
     <use x="299.121094" xlink:href="#DejaVuSans-116"/>
     <use x="338.330078" xlink:href="#DejaVuSans-101"/>
     <use x="399.853516" xlink:href="#DejaVuSans-32"/>
     <use x="431.640625" xlink:href="#DejaVuSans-80"/>
     <use x="487.443359" xlink:href="#DejaVuSans-97"/>
     <use x="548.722656" xlink:href="#DejaVuSans-121"/>
     <use x="593.652344" xlink:href="#DejaVuSans-46"/>
     <use x="625.439453" xlink:href="#DejaVuSans-46"/>
     <use x="657.226562" xlink:href="#DejaVuSans-46"/>
    </g>
   </g>
   <g id="text_22">
    <!-- Execute Pay... -->
    <g transform="translate(1134.088767 474.854548)scale(0.09 -0.09)">
     <use xlink:href="#DejaVuSans-69"/>
     <use x="63.183594" xlink:href="#DejaVuSans-120"/>
     <use x="119.238281" xlink:href="#DejaVuSans-101"/>
     <use x="180.761719" xlink:href="#DejaVuSans-99"/>
     <use x="235.742188" xlink:href="#DejaVuSans-117"/>
     <use x="299.121094" xlink:href="#DejaVuSans-116"/>
     <use x="338.330078" xlink:href="#DejaVuSans-101"/>
     <use x="399.853516" xlink:href="#DejaVuSans-32"/>
     <use x="431.640625" xlink:href="#DejaVuSans-80"/>
     <use x="487.443359" xlink:href="#DejaVuSans-97"/>
     <use x="548.722656" xlink:href="#DejaVuSans-121"/>
     <use x="593.652344" xlink:href="#DejaVuSans-46"/>
     <use x="625.439453" xlink:href="#DejaVuSans-46"/>
     <use x="657.226562" xlink:href="#DejaVuSans-46"/>
    </g>
   </g>
   <g id="text_23">
    <!-- Create Invo... -->
    <g transform="translate(693.803836 438.164137)scale(0.09 -0.09)">
     <use xlink:href="#DejaVuSans-67"/>
     <use x="69.824219" xlink:href="#DejaVuSans-114"/>
     <use x="108.6875" xlink:href="#DejaVuSans-101"/>
     <use x="170.210938" xlink:href="#DejaVuSans-97"/>
     <use x="231.490234" xlink:href="#DejaVuSans-116"/>
     <use x="270.699219" xlink:href="#DejaVuSans-101"/>
     <use x="332.222656" xlink:href="#DejaVuSans-32"/>
     <use x="364.009766" xlink:href="#DejaVuSans-73"/>
     <use x="393.501953" xlink:href="#DejaVuSans-110"/>
     <use x="456.880859" xlink:href="#DejaVuSans-118"/>
     <use x="516.060547" xlink:href="#DejaVuSans-111"/>
     <use x="575.492188" xlink:href="#DejaVuSans-46"/>
     <use x="607.279297" xlink:href="#DejaVuSans-46"/>
     <use x="639.066406" xlink:href="#DejaVuSans-46"/>
    </g>
   </g>
   <g id="text_24">
    <!-- Perform Two... -->
    <g transform="translate(803.875068 438.164137)scale(0.09 -0.09)">
     <use xlink:href="#DejaVuSans-80"/>
     <use x="56.677734" xlink:href="#DejaVuSans-101"/>
     <use x="118.201172" xlink:href="#DejaVuSans-114"/>
     <use x="159.314453" xlink:href="#DejaVuSans-102"/>
     <use x="194.519531" xlink:href="#DejaVuSans-111"/>
     <use x="255.701172" xlink:href="#DejaVuSans-114"/>
     <use x="295.064453" xlink:href="#DejaVuSans-109"/>
     <use x="392.476562" xlink:href="#DejaVuSans-32"/>
     <use x="424.263672" xlink:href="#DejaVuSans-84"/>
     <use x="468.847656" xlink:href="#DejaVuSans-119"/>
     <use x="550.634766" xlink:href="#DejaVuSans-111"/>
     <use x="610.066406" xlink:href="#DejaVuSans-46"/>
     <use x="641.853516" xlink:href="#DejaVuSans-46"/>
     <use x="673.640625" xlink:href="#DejaVuSans-46"/>
    </g>
   </g>
   <g id="text_25">
    <!-- Execute Pay... -->
    <g transform="translate(913.946301 438.164137)scale(0.09 -0.09)">
     <use xlink:href="#DejaVuSans-69"/>
     <use x="63.183594" xlink:href="#DejaVuSans-120"/>
     <use x="119.238281" xlink:href="#DejaVuSans-101"/>
     <use x="180.761719" xlink:href="#DejaVuSans-99"/>
     <use x="235.742188" xlink:href="#DejaVuSans-117"/>
     <use x="299.121094" xlink:href="#DejaVuSans-116"/>
     <use x="338.330078" xlink:href="#DejaVuSans-101"/>
     <use x="399.853516" xlink:href="#DejaVuSans-32"/>
     <use x="431.640625" xlink:href="#DejaVuSans-80"/>
     <use x="487.443359" xlink:href="#DejaVuSans-97"/>
     <use x="548.722656" xlink:href="#DejaVuSans-121"/>
     <use x="593.652344" xlink:href="#DejaVuSans-46"/>
     <use x="625.439453" xlink:href="#DejaVuSans-46"/>
     <use x="657.226562" xlink:href="#DejaVuSans-46"/>
    </g>
   </g>
   <g id="text_26">
    <!-- Execute Pay... -->
    <g transform="translate(1024.017534 438.164137)scale(0.09 -0.09)">
     <use xlink:href="#DejaVuSans-69"/>
     <use x="63.183594" xlink:href="#DejaVuSans-120"/>
     <use x="119.238281" xlink:href="#DejaVuSans-101"/>
     <use x="180.761719" xlink:href="#DejaVuSans-99"/>
     <use x="235.742188" xlink:href="#DejaVuSans-117"/>
     <use x="299.121094" xlink:href="#DejaVuSans-116"/>
     <use x="338.330078" xlink:href="#DejaVuSans-101"/>
     <use x="399.853516" xlink:href="#DejaVuSans-32"/>
     <use x="431.640625" xlink:href="#DejaVuSans-80"/>
     <use x="487.443359" xlink:href="#DejaVuSans-97"/>
     <use x="548.722656" xlink:href="#DejaVuSans-121"/>
     <use x="593.652344" xlink:href="#DejaVuSans-46"/>
     <use x="625.439453" xlink:href="#DejaVuSans-46"/>
     <use x="657.226562" xlink:href="#DejaVuSans-46"/>
    </g>
   </g>
   <g id="text_27">
    <!-- Execute Pay... -->
    <g transform="translate(1134.088767 438.164137)scale(0.09 -0.09)">
     <use xlink:href="#DejaVuSans-69"/>
     <use x="63.183594" xlink:href="#DejaVuSans-120"/>
     <use x="119.238281" xlink:href="#DejaVuSans-101"/>
     <use x="180.761719" xlink:href="#DejaVuSans-99"/>
     <use x="235.742188" xlink:href="#DejaVuSans-117"/>
     <use x="299.121094" xlink:href="#DejaVuSans-116"/>
     <use x="338.330078" xlink:href="#DejaVuSans-101"/>
     <use x="399.853516" xlink:href="#DejaVuSans-32"/>
     <use x="431.640625" xlink:href="#DejaVuSans-80"/>
     <use x="487.443359" xlink:href="#DejaVuSans-97"/>
     <use x="548.722656" xlink:href="#DejaVuSans-121"/>
     <use x="593.652344" xlink:href="#DejaVuSans-46"/>
     <use x="625.439453" xlink:href="#DejaVuSans-46"/>
     <use x="657.226562" xlink:href="#DejaVuSans-46"/>
    </g>
   </g>
   <g id="text_28">
    <!-- Create Purc... -->
    <g transform="translate(253.518904 401.473726)scale(0.09 -0.09)">
     <use xlink:href="#DejaVuSans-67"/>
     <use x="69.824219" xlink:href="#DejaVuSans-114"/>
     <use x="108.6875" xlink:href="#DejaVuSans-101"/>
     <use x="170.210938" xlink:href="#DejaVuSans-97"/>
     <use x="231.490234" xlink:href="#DejaVuSans-116"/>
     <use x="270.699219" xlink:href="#DejaVuSans-101"/>
     <use x="332.222656" xlink:href="#DejaVuSans-32"/>
     <use x="364.009766" xlink:href="#DejaVuSans-80"/>
     <use x="422.5625" xlink:href="#DejaVuSans-117"/>
     <use x="485.941406" xlink:href="#DejaVuSans-114"/>
     <use x="524.804688" xlink:href="#DejaVuSans-99"/>
     <use x="579.785156" xlink:href="#DejaVuSans-46"/>
     <use x="611.572266" xlink:href="#DejaVuSans-46"/>
     <use x="643.359375" xlink:href="#DejaVuSans-46"/>
    </g>
   </g>
   <g id="text_29">
    <!-- Approve Pur... -->
    <g transform="translate(363.590137 401.473726)scale(0.09 -0.09)">
     <defs>
      <path d="M 34.1875 63.1875 
L 20.796875 26.90625 
L 47.609375 26.90625 
z
M 28.609375 72.90625 
L 39.796875 72.90625 
L 67.578125 0 
L 57.328125 0 
L 50.6875 18.703125 
L 17.828125 18.703125 
L 11.1875 0 
L 0.78125 0 
z
" id="DejaVuSans-65"/>
     </defs>
     <use xlink:href="#DejaVuSans-65"/>
     <use x="68.408203" xlink:href="#DejaVuSans-112"/>
     <use x="131.884766" xlink:href="#DejaVuSans-112"/>
     <use x="195.361328" xlink:href="#DejaVuSans-114"/>
     <use x="234.224609" xlink:href="#DejaVuSans-111"/>
     <use x="295.40625" xlink:href="#DejaVuSans-118"/>
     <use x="354.585938" xlink:href="#DejaVuSans-101"/>
     <use x="416.109375" xlink:href="#DejaVuSans-32"/>
     <use x="447.896484" xlink:href="#DejaVuSans-80"/>
     <use x="506.449219" xlink:href="#DejaVuSans-117"/>
     <use x="569.828125" xlink:href="#DejaVuSans-114"/>
     <use x="601.816406" xlink:href="#DejaVuSans-46"/>
     <use x="633.603516" xlink:href="#DejaVuSans-46"/>
     <use x="665.390625" xlink:href="#DejaVuSans-46"/>
    </g>
   </g>
   <g id="text_30">
    <!-- Execute Pay... -->
    <g transform="translate(913.946301 364.783315)scale(0.09 -0.09)">
     <use xlink:href="#DejaVuSans-69"/>
     <use x="63.183594" xlink:href="#DejaVuSans-120"/>
     <use x="119.238281" xlink:href="#DejaVuSans-101"/>
     <use x="180.761719" xlink:href="#DejaVuSans-99"/>
     <use x="235.742188" xlink:href="#DejaVuSans-117"/>
     <use x="299.121094" xlink:href="#DejaVuSans-116"/>
     <use x="338.330078" xlink:href="#DejaVuSans-101"/>
     <use x="399.853516" xlink:href="#DejaVuSans-32"/>
     <use x="431.640625" xlink:href="#DejaVuSans-80"/>
     <use x="487.443359" xlink:href="#DejaVuSans-97"/>
     <use x="548.722656" xlink:href="#DejaVuSans-121"/>
     <use x="593.652344" xlink:href="#DejaVuSans-46"/>
     <use x="625.439453" xlink:href="#DejaVuSans-46"/>
     <use x="657.226562" xlink:href="#DejaVuSans-46"/>
    </g>
   </g>
   <g id="text_31">
    <!-- Execute Pay... -->
    <g transform="translate(1024.017534 364.783315)scale(0.09 -0.09)">
     <use xlink:href="#DejaVuSans-69"/>
     <use x="63.183594" xlink:href="#DejaVuSans-120"/>
     <use x="119.238281" xlink:href="#DejaVuSans-101"/>
     <use x="180.761719" xlink:href="#DejaVuSans-99"/>
     <use x="235.742188" xlink:href="#DejaVuSans-117"/>
     <use x="299.121094" xlink:href="#DejaVuSans-116"/>
     <use x="338.330078" xlink:href="#DejaVuSans-101"/>
     <use x="399.853516" xlink:href="#DejaVuSans-32"/>
     <use x="431.640625" xlink:href="#DejaVuSans-80"/>
     <use x="487.443359" xlink:href="#DejaVuSans-97"/>
     <use x="548.722656" xlink:href="#DejaVuSans-121"/>
     <use x="593.652344" xlink:href="#DejaVuSans-46"/>
     <use x="625.439453" xlink:href="#DejaVuSans-46"/>
     <use x="657.226562" xlink:href="#DejaVuSans-46"/>
    </g>
   </g>
   <g id="text_32">
    <!-- Execute Pay... -->
    <g transform="translate(1134.088767 364.783315)scale(0.09 -0.09)">
     <use xlink:href="#DejaVuSans-69"/>
     <use x="63.183594" xlink:href="#DejaVuSans-120"/>
     <use x="119.238281" xlink:href="#DejaVuSans-101"/>
     <use x="180.761719" xlink:href="#DejaVuSans-99"/>
     <use x="235.742188" xlink:href="#DejaVuSans-117"/>
     <use x="299.121094" xlink:href="#DejaVuSans-116"/>
     <use x="338.330078" xlink:href="#DejaVuSans-101"/>
     <use x="399.853516" xlink:href="#DejaVuSans-32"/>
     <use x="431.640625" xlink:href="#DejaVuSans-80"/>
     <use x="487.443359" xlink:href="#DejaVuSans-97"/>
     <use x="548.722656" xlink:href="#DejaVuSans-121"/>
     <use x="593.652344" xlink:href="#DejaVuSans-46"/>
     <use x="625.439453" xlink:href="#DejaVuSans-46"/>
     <use x="657.226562" xlink:href="#DejaVuSans-46"/>
    </g>
   </g>
   <g id="text_33">
    <!-- Create Purc... -->
    <g transform="translate(363.590137 328.092904)scale(0.09 -0.09)">
     <use xlink:href="#DejaVuSans-67"/>
     <use x="69.824219" xlink:href="#DejaVuSans-114"/>
     <use x="108.6875" xlink:href="#DejaVuSans-101"/>
     <use x="170.210938" xlink:href="#DejaVuSans-97"/>
     <use x="231.490234" xlink:href="#DejaVuSans-116"/>
     <use x="270.699219" xlink:href="#DejaVuSans-101"/>
     <use x="332.222656" xlink:href="#DejaVuSans-32"/>
     <use x="364.009766" xlink:href="#DejaVuSans-80"/>
     <use x="422.5625" xlink:href="#DejaVuSans-117"/>
     <use x="485.941406" xlink:href="#DejaVuSans-114"/>
     <use x="524.804688" xlink:href="#DejaVuSans-99"/>
     <use x="579.785156" xlink:href="#DejaVuSans-46"/>
     <use x="611.572266" xlink:href="#DejaVuSans-46"/>
     <use x="643.359375" xlink:href="#DejaVuSans-46"/>
    </g>
   </g>
   <g id="text_34">
    <!-- Approve Pur... -->
    <g transform="translate(693.803836 328.092904)scale(0.09 -0.09)">
     <use xlink:href="#DejaVuSans-65"/>
     <use x="68.408203" xlink:href="#DejaVuSans-112"/>
     <use x="131.884766" xlink:href="#DejaVuSans-112"/>
     <use x="195.361328" xlink:href="#DejaVuSans-114"/>
     <use x="234.224609" xlink:href="#DejaVuSans-111"/>
     <use x="295.40625" xlink:href="#DejaVuSans-118"/>
     <use x="354.585938" xlink:href="#DejaVuSans-101"/>
     <use x="416.109375" xlink:href="#DejaVuSans-32"/>
     <use x="447.896484" xlink:href="#DejaVuSans-80"/>
     <use x="506.449219" xlink:href="#DejaVuSans-117"/>
     <use x="569.828125" xlink:href="#DejaVuSans-114"/>
     <use x="601.816406" xlink:href="#DejaVuSans-46"/>
     <use x="633.603516" xlink:href="#DejaVuSans-46"/>
     <use x="665.390625" xlink:href="#DejaVuSans-46"/>
    </g>
   </g>
   <g id="text_35">
    <!-- Create Good... -->
    <g transform="translate(803.875068 328.092904)scale(0.09 -0.09)">
     <use xlink:href="#DejaVuSans-67"/>
     <use x="69.824219" xlink:href="#DejaVuSans-114"/>
     <use x="108.6875" xlink:href="#DejaVuSans-101"/>
     <use x="170.210938" xlink:href="#DejaVuSans-97"/>
     <use x="231.490234" xlink:href="#DejaVuSans-116"/>
     <use x="270.699219" xlink:href="#DejaVuSans-101"/>
     <use x="332.222656" xlink:href="#DejaVuSans-32"/>
     <use x="364.009766" xlink:href="#DejaVuSans-71"/>
     <use x="441.5" xlink:href="#DejaVuSans-111"/>
     <use x="502.681641" xlink:href="#DejaVuSans-111"/>
     <use x="563.863281" xlink:href="#DejaVuSans-100"/>
     <use x="627.339844" xlink:href="#DejaVuSans-46"/>
     <use x="659.126953" xlink:href="#DejaVuSans-46"/>
     <use x="690.914062" xlink:href="#DejaVuSans-46"/>
    </g>
   </g>
   <g id="text_36">
    <!-- Execute Pay... -->
    <g transform="translate(913.946301 328.092904)scale(0.09 -0.09)">
     <use xlink:href="#DejaVuSans-69"/>
     <use x="63.183594" xlink:href="#DejaVuSans-120"/>
     <use x="119.238281" xlink:href="#DejaVuSans-101"/>
     <use x="180.761719" xlink:href="#DejaVuSans-99"/>
     <use x="235.742188" xlink:href="#DejaVuSans-117"/>
     <use x="299.121094" xlink:href="#DejaVuSans-116"/>
     <use x="338.330078" xlink:href="#DejaVuSans-101"/>
     <use x="399.853516" xlink:href="#DejaVuSans-32"/>
     <use x="431.640625" xlink:href="#DejaVuSans-80"/>
     <use x="487.443359" xlink:href="#DejaVuSans-97"/>
     <use x="548.722656" xlink:href="#DejaVuSans-121"/>
     <use x="593.652344" xlink:href="#DejaVuSans-46"/>
     <use x="625.439453" xlink:href="#DejaVuSans-46"/>
     <use x="657.226562" xlink:href="#DejaVuSans-46"/>
    </g>
   </g>
   <g id="text_37">
    <!-- Execute Pay... -->
    <g transform="translate(1024.017534 328.092904)scale(0.09 -0.09)">
     <use xlink:href="#DejaVuSans-69"/>
     <use x="63.183594" xlink:href="#DejaVuSans-120"/>
     <use x="119.238281" xlink:href="#DejaVuSans-101"/>
     <use x="180.761719" xlink:href="#DejaVuSans-99"/>
     <use x="235.742188" xlink:href="#DejaVuSans-117"/>
     <use x="299.121094" xlink:href="#DejaVuSans-116"/>
     <use x="338.330078" xlink:href="#DejaVuSans-101"/>
     <use x="399.853516" xlink:href="#DejaVuSans-32"/>
     <use x="431.640625" xlink:href="#DejaVuSans-80"/>
     <use x="487.443359" xlink:href="#DejaVuSans-97"/>
     <use x="548.722656" xlink:href="#DejaVuSans-121"/>
     <use x="593.652344" xlink:href="#DejaVuSans-46"/>
     <use x="625.439453" xlink:href="#DejaVuSans-46"/>
     <use x="657.226562" xlink:href="#DejaVuSans-46"/>
    </g>
   </g>
   <g id="text_38">
    <!-- Execute Pay... -->
    <g transform="translate(1134.088767 328.092904)scale(0.09 -0.09)">
     <use xlink:href="#DejaVuSans-69"/>
     <use x="63.183594" xlink:href="#DejaVuSans-120"/>
     <use x="119.238281" xlink:href="#DejaVuSans-101"/>
     <use x="180.761719" xlink:href="#DejaVuSans-99"/>
     <use x="235.742188" xlink:href="#DejaVuSans-117"/>
     <use x="299.121094" xlink:href="#DejaVuSans-116"/>
     <use x="338.330078" xlink:href="#DejaVuSans-101"/>
     <use x="399.853516" xlink:href="#DejaVuSans-32"/>
     <use x="431.640625" xlink:href="#DejaVuSans-80"/>
     <use x="487.443359" xlink:href="#DejaVuSans-97"/>
     <use x="548.722656" xlink:href="#DejaVuSans-121"/>
     <use x="593.652344" xlink:href="#DejaVuSans-46"/>
     <use x="625.439453" xlink:href="#DejaVuSans-46"/>
     <use x="657.226562" xlink:href="#DejaVuSans-46"/>
    </g>
   </g>
   <g id="text_39">
    <!-- Create Purc... -->
    <g transform="translate(253.518904 291.402493)scale(0.09 -0.09)">
     <use xlink:href="#DejaVuSans-67"/>
     <use x="69.824219" xlink:href="#DejaVuSans-114"/>
     <use x="108.6875" xlink:href="#DejaVuSans-101"/>
     <use x="170.210938" xlink:href="#DejaVuSans-97"/>
     <use x="231.490234" xlink:href="#DejaVuSans-116"/>
     <use x="270.699219" xlink:href="#DejaVuSans-101"/>
     <use x="332.222656" xlink:href="#DejaVuSans-32"/>
     <use x="364.009766" xlink:href="#DejaVuSans-80"/>
     <use x="422.5625" xlink:href="#DejaVuSans-117"/>
     <use x="485.941406" xlink:href="#DejaVuSans-114"/>
     <use x="524.804688" xlink:href="#DejaVuSans-99"/>
     <use x="579.785156" xlink:href="#DejaVuSans-46"/>
     <use x="611.572266" xlink:href="#DejaVuSans-46"/>
     <use x="643.359375" xlink:href="#DejaVuSans-46"/>
    </g>
   </g>
   <g id="text_40">
    <!-- Approve Pur... -->
    <g transform="translate(363.590137 291.402493)scale(0.09 -0.09)">
     <use xlink:href="#DejaVuSans-65"/>
     <use x="68.408203" xlink:href="#DejaVuSans-112"/>
     <use x="131.884766" xlink:href="#DejaVuSans-112"/>
     <use x="195.361328" xlink:href="#DejaVuSans-114"/>
     <use x="234.224609" xlink:href="#DejaVuSans-111"/>
     <use x="295.40625" xlink:href="#DejaVuSans-118"/>
     <use x="354.585938" xlink:href="#DejaVuSans-101"/>
     <use x="416.109375" xlink:href="#DejaVuSans-32"/>
     <use x="447.896484" xlink:href="#DejaVuSans-80"/>
     <use x="506.449219" xlink:href="#DejaVuSans-117"/>
     <use x="569.828125" xlink:href="#DejaVuSans-114"/>
     <use x="601.816406" xlink:href="#DejaVuSans-46"/>
     <use x="633.603516" xlink:href="#DejaVuSans-46"/>
     <use x="665.390625" xlink:href="#DejaVuSans-46"/>
    </g>
   </g>
   <g id="text_41">
    <!-- Create Requ... -->
    <g transform="translate(473.66137 291.402493)scale(0.09 -0.09)">
     <defs>
      <path d="M 44.390625 34.1875 
Q 47.5625 33.109375 50.5625 29.59375 
Q 53.5625 26.078125 56.59375 19.921875 
L 66.609375 0 
L 56 0 
L 46.6875 18.703125 
Q 43.0625 26.03125 39.671875 28.421875 
Q 36.28125 30.8125 30.421875 30.8125 
L 19.671875 30.8125 
L 19.671875 0 
L 9.8125 0 
L 9.8125 72.90625 
L 32.078125 72.90625 
Q 44.578125 72.90625 50.734375 67.671875 
Q 56.890625 62.453125 56.890625 51.90625 
Q 56.890625 45.015625 53.6875 40.46875 
Q 50.484375 35.9375 44.390625 34.1875 
z
M 19.671875 64.796875 
L 19.671875 38.921875 
L 32.078125 38.921875 
Q 39.203125 38.921875 42.84375 42.21875 
Q 46.484375 45.515625 46.484375 51.90625 
Q 46.484375 58.296875 42.84375 61.546875 
Q 39.203125 64.796875 32.078125 64.796875 
z
" id="DejaVuSans-82"/>
     </defs>
     <use xlink:href="#DejaVuSans-67"/>
     <use x="69.824219" xlink:href="#DejaVuSans-114"/>
     <use x="108.6875" xlink:href="#DejaVuSans-101"/>
     <use x="170.210938" xlink:href="#DejaVuSans-97"/>
     <use x="231.490234" xlink:href="#DejaVuSans-116"/>
     <use x="270.699219" xlink:href="#DejaVuSans-101"/>
     <use x="332.222656" xlink:href="#DejaVuSans-32"/>
     <use x="364.009766" xlink:href="#DejaVuSans-82"/>
     <use x="428.992188" xlink:href="#DejaVuSans-101"/>
     <use x="490.515625" xlink:href="#DejaVuSans-113"/>
     <use x="553.992188" xlink:href="#DejaVuSans-117"/>
     <use x="617.371094" xlink:href="#DejaVuSans-46"/>
     <use x="649.158203" xlink:href="#DejaVuSans-46"/>
     <use x="680.945312" xlink:href="#DejaVuSans-46"/>
    </g>
   </g>
   <g id="text_42">
    <!-- Create Requ... -->
    <g transform="translate(473.66137 254.712082)scale(0.09 -0.09)">
     <use xlink:href="#DejaVuSans-67"/>
     <use x="69.824219" xlink:href="#DejaVuSans-114"/>
     <use x="108.6875" xlink:href="#DejaVuSans-101"/>
     <use x="170.210938" xlink:href="#DejaVuSans-97"/>
     <use x="231.490234" xlink:href="#DejaVuSans-116"/>
     <use x="270.699219" xlink:href="#DejaVuSans-101"/>
     <use x="332.222656" xlink:href="#DejaVuSans-32"/>
     <use x="364.009766" xlink:href="#DejaVuSans-82"/>
     <use x="428.992188" xlink:href="#DejaVuSans-101"/>
     <use x="490.515625" xlink:href="#DejaVuSans-113"/>
     <use x="553.992188" xlink:href="#DejaVuSans-117"/>
     <use x="617.371094" xlink:href="#DejaVuSans-46"/>
     <use x="649.158203" xlink:href="#DejaVuSans-46"/>
     <use x="680.945312" xlink:href="#DejaVuSans-46"/>
    </g>
   </g>
   <g id="text_43">
    <!-- Create Purc... -->
    <g transform="translate(583.732603 254.712082)scale(0.09 -0.09)">
     <use xlink:href="#DejaVuSans-67"/>
     <use x="69.824219" xlink:href="#DejaVuSans-114"/>
     <use x="108.6875" xlink:href="#DejaVuSans-101"/>
     <use x="170.210938" xlink:href="#DejaVuSans-97"/>
     <use x="231.490234" xlink:href="#DejaVuSans-116"/>
     <use x="270.699219" xlink:href="#DejaVuSans-101"/>
     <use x="332.222656" xlink:href="#DejaVuSans-32"/>
     <use x="364.009766" xlink:href="#DejaVuSans-80"/>
     <use x="422.5625" xlink:href="#DejaVuSans-117"/>
     <use x="485.941406" xlink:href="#DejaVuSans-114"/>
     <use x="524.804688" xlink:href="#DejaVuSans-99"/>
     <use x="579.785156" xlink:href="#DejaVuSans-46"/>
     <use x="611.572266" xlink:href="#DejaVuSans-46"/>
     <use x="643.359375" xlink:href="#DejaVuSans-46"/>
    </g>
   </g>
   <g id="text_44">
    <!-- Approve Pur... -->
    <g transform="translate(693.803836 254.712082)scale(0.09 -0.09)">
     <use xlink:href="#DejaVuSans-65"/>
     <use x="68.408203" xlink:href="#DejaVuSans-112"/>
     <use x="131.884766" xlink:href="#DejaVuSans-112"/>
     <use x="195.361328" xlink:href="#DejaVuSans-114"/>
     <use x="234.224609" xlink:href="#DejaVuSans-111"/>
     <use x="295.40625" xlink:href="#DejaVuSans-118"/>
     <use x="354.585938" xlink:href="#DejaVuSans-101"/>
     <use x="416.109375" xlink:href="#DejaVuSans-32"/>
     <use x="447.896484" xlink:href="#DejaVuSans-80"/>
     <use x="506.449219" xlink:href="#DejaVuSans-117"/>
     <use x="569.828125" xlink:href="#DejaVuSans-114"/>
     <use x="601.816406" xlink:href="#DejaVuSans-46"/>
     <use x="633.603516" xlink:href="#DejaVuSans-46"/>
     <use x="665.390625" xlink:href="#DejaVuSans-46"/>
    </g>
   </g>
  </g>
 </g>
 <defs>
  <clipPath id="p81faf59973">
   <rect height="289.854247" width="1071.36" x="172.8" y="209.582877"/>
  </clipPath>
 </defs>
</svg>
