<?xml version="1.0" encoding="utf-8" standalone="no"?>
<!DOCTYPE svg PUBLIC "-//W3C//DTD SVG 1.1//EN"
  "http://www.w3.org/Graphics/SVG/1.1/DTD/svg11.dtd">
<!-- Created with matplotlib (https://matplotlib.org/) -->
<svg height="702pt" version="1.1" viewBox="0 0 1382.4 702" width="1382.4pt" xmlns="http://www.w3.org/2000/svg" xmlns:xlink="http://www.w3.org/1999/xlink">
 <metadata>
  <rdf:RDF xmlns:cc="http://creativecommons.org/ns#" xmlns:dc="http://purl.org/dc/elements/1.1/" xmlns:rdf="http://www.w3.org/1999/02/22-rdf-syntax-ns#">
   <cc:Work>
    <dc:type rdf:resource="http://purl.org/dc/dcmitype/StillImage"/>
    <dc:date>2023-05-16T10:44:48.033561</dc:date>
    <dc:format>image/svg+xml</dc:format>
    <dc:creator>
     <cc:Agent>
      <dc:title>Matplotlib v3.3.4, https://matplotlib.org/</dc:title>
     </cc:Agent>
    </dc:creator>
   </cc:Work>
  </rdf:RDF>
 </metadata>
 <defs>
  <style type="text/css">*{stroke-linecap:butt;stroke-linejoin:round;}</style>
 </defs>
 <g id="figure_1">
  <g id="patch_1">
   <path d="M 0 702 
L 1382.4 702 
L 1382.4 0 
L 0 0 
z
" style="fill:#ffffff;"/>
  </g>
  <g id="axes_1">
   <g id="patch_2">
    <path clip-path="url(#p73e7e75de2)" d="M 193.245802 518.076412 
L 1297.319084 518.076412 
L 1297.319084 456.739008 
L 193.245802 456.739008 
z
" style="fill:#ffa24b;opacity:0.8;stroke:#ffa24b;stroke-linejoin:miter;"/>
   </g>
   <g id="patch_3">
    <path clip-path="url(#p73e7e75de2)" d="M 193.245802 456.739008 
L 1297.319084 456.739008 
L 1297.319084 395.401603 
L 193.245802 395.401603 
z
" style="fill:#76c476;opacity:0.8;stroke:#76c476;stroke-linejoin:miter;"/>
   </g>
   <g id="patch_4">
    <path clip-path="url(#p73e7e75de2)" d="M 193.245802 395.401603 
L 1297.319084 395.401603 
L 1297.319084 334.064198 
L 193.245802 334.064198 
z
" style="fill:url(#h2f1eeab7a4);opacity:0.8;stroke:#8ccd8c;stroke-linejoin:miter;"/>
   </g>
   <g id="patch_5">
    <path clip-path="url(#p73e7e75de2)" d="M 193.245802 334.064198 
L 1297.319084 334.064198 
L 1297.319084 272.726794 
L 193.245802 272.726794 
z
" style="fill:#4a82c5;opacity:0.8;stroke:#4a82c5;stroke-linejoin:miter;"/>
   </g>
   <g id="patch_6">
    <path clip-path="url(#p73e7e75de2)" d="M 193.245802 272.726794 
L 1297.319084 272.726794 
L 1297.319084 211.389389 
L 193.245802 211.389389 
z
" style="fill:url(#hd96723ae9f);opacity:0.8;stroke:#5f90cb;stroke-linejoin:miter;"/>
   </g>
   <g id="patch_7">
    <path clip-path="url(#p73e7e75de2)" d="M 377.258015 518.076412 
L 867.957252 518.076412 
L 873.068702 487.40771 
L 867.957252 456.739008 
L 377.258015 456.739008 
L 382.369466 487.40771 
z
" style="fill:none;stroke:#000000;stroke-linejoin:miter;"/>
   </g>
   <g id="patch_8">
    <path clip-path="url(#p73e7e75de2)" d="M 1113.30687 518.076412 
L 1235.981679 518.076412 
L 1241.09313 487.40771 
L 1235.981679 456.739008 
L 1113.30687 456.739008 
L 1118.418321 487.40771 
z
" style="fill:none;stroke:#000000;stroke-linejoin:miter;"/>
   </g>
   <g id="patch_9">
    <path clip-path="url(#p73e7e75de2)" d="M 745.282443 334.064198 
L 867.957252 334.064198 
L 873.068702 303.395496 
L 867.957252 272.726794 
L 745.282443 272.726794 
L 750.393893 303.395496 
z
" style="fill:none;stroke:#000000;stroke-linejoin:miter;"/>
   </g>
   <g id="patch_10">
    <path clip-path="url(#p73e7e75de2)" d="M 254.583206 518.076412 
L 315.920611 518.076412 
L 321.032061 487.40771 
L 259.694656 487.40771 
z
" style="fill:#76c476;"/>
   </g>
   <g id="patch_11">
    <path clip-path="url(#p73e7e75de2)" d="M 315.920611 518.076412 
L 377.258015 518.076412 
L 382.369466 487.40771 
L 321.032061 487.40771 
z
" style="fill:#ffa24b;"/>
   </g>
   <g id="patch_12">
    <path clip-path="url(#p73e7e75de2)" d="M 259.694656 487.40771 
L 300.58626 487.40771 
L 295.474809 456.739008 
L 254.583206 456.739008 
z
" style="fill:#76c476;"/>
   </g>
   <g id="patch_13">
    <path clip-path="url(#p73e7e75de2)" d="M 300.58626 487.40771 
L 341.477863 487.40771 
L 336.366412 456.739008 
L 295.474809 456.739008 
z
" style="fill:#8ccd8c;"/>
   </g>
   <g id="patch_14">
    <path clip-path="url(#p73e7e75de2)" d="M 341.477863 487.40771 
L 382.369466 487.40771 
L 377.258015 456.739008 
L 336.366412 456.739008 
z
" style="fill:#ffa24b;"/>
   </g>
   <g id="patch_15">
    <path clip-path="url(#p73e7e75de2)" d="M 381.347176 512.964962 
L 501.977405 512.964962 
L 507.088855 487.40771 
L 501.977405 461.850458 
L 381.347176 461.850458 
L 386.458626 487.40771 
z
" style="fill:#ffa24b;stroke:#000000;stroke-dasharray:4.729833,2.045333;stroke-dashoffset:0;stroke-linejoin:miter;stroke-width:1.278333;"/>
   </g>
   <g id="patch_16">
    <path clip-path="url(#p73e7e75de2)" d="M 501.977405 512.964962 
L 622.607634 512.964962 
L 627.719084 487.40771 
L 622.607634 461.850458 
L 501.977405 461.850458 
L 507.088855 487.40771 
z
" style="fill:#ffa24b;stroke:#000000;stroke-dasharray:4.729833,2.045333;stroke-dashoffset:0;stroke-linejoin:miter;stroke-width:1.278333;"/>
   </g>
   <g id="patch_17">
    <path clip-path="url(#p73e7e75de2)" d="M 622.607634 512.964962 
L 662.81771 512.964962 
L 667.92916 487.40771 
L 662.81771 461.850458 
L 622.607634 461.850458 
L 627.719084 487.40771 
z
" style="fill:#4a82c5;stroke-dasharray:0,0;stroke-dashoffset:0;"/>
   </g>
   <g id="patch_18">
    <path clip-path="url(#p73e7e75de2)" d="M 662.81771 512.964962 
L 703.027786 512.964962 
L 708.139237 487.40771 
L 703.027786 461.850458 
L 662.81771 461.850458 
L 667.92916 487.40771 
z
" style="fill:#76c476;stroke-dasharray:0,0;stroke-dashoffset:0;"/>
   </g>
   <g id="patch_19">
    <path clip-path="url(#p73e7e75de2)" d="M 703.027786 512.964962 
L 743.237863 512.964962 
L 748.349313 487.40771 
L 743.237863 461.850458 
L 703.027786 461.850458 
L 708.139237 487.40771 
z
" style="fill:#ffa24b;stroke-dasharray:0,0;stroke-dashoffset:0;"/>
   </g>
   <g id="patch_20">
    <path clip-path="url(#p73e7e75de2)" d="M 743.237863 512.964962 
L 783.447939 512.964962 
L 788.559389 487.40771 
L 783.447939 461.850458 
L 743.237863 461.850458 
L 748.349313 487.40771 
z
" style="fill:#5f90cb;stroke-dasharray:0,0;stroke-dashoffset:0;"/>
   </g>
   <g id="patch_21">
    <path clip-path="url(#p73e7e75de2)" d="M 783.447939 512.964962 
L 823.658015 512.964962 
L 828.769466 487.40771 
L 823.658015 461.850458 
L 783.447939 461.850458 
L 788.559389 487.40771 
z
" style="fill:#8ccd8c;stroke-dasharray:0,0;stroke-dashoffset:0;"/>
   </g>
   <g id="patch_22">
    <path clip-path="url(#p73e7e75de2)" d="M 823.658015 512.964962 
L 863.868092 512.964962 
L 868.979542 487.40771 
L 863.868092 461.850458 
L 823.658015 461.850458 
L 828.769466 487.40771 
z
" style="fill:#ffa24b;stroke-dasharray:0,0;stroke-dashoffset:0;"/>
   </g>
   <g id="patch_23">
    <path clip-path="url(#p73e7e75de2)" d="M 867.957252 518.076412 
L 990.632061 518.076412 
L 995.743511 487.40771 
L 990.632061 456.739008 
L 867.957252 456.739008 
L 873.068702 487.40771 
z
" style="fill:#ffa24b;stroke:#000000;stroke-linejoin:miter;stroke-width:1.3;"/>
   </g>
   <g id="patch_24">
    <path clip-path="url(#p73e7e75de2)" d="M 990.632061 518.076412 
L 1113.30687 518.076412 
L 1118.418321 487.40771 
L 1113.30687 456.739008 
L 990.632061 456.739008 
L 995.743511 487.40771 
z
" style="fill:#ffa24b;stroke:#000000;stroke-linejoin:miter;stroke-width:1.3;"/>
   </g>
   <g id="patch_25">
    <path clip-path="url(#p73e7e75de2)" d="M 1117.396031 512.964962 
L 1155.561527 512.964962 
L 1160.672977 487.40771 
L 1155.561527 461.850458 
L 1117.396031 461.850458 
L 1122.507481 487.40771 
z
" style="fill:#4a82c5;stroke-dasharray:0,0;stroke-dashoffset:0;"/>
   </g>
   <g id="patch_26">
    <path clip-path="url(#p73e7e75de2)" d="M 1155.561527 512.964962 
L 1193.727023 512.964962 
L 1198.838473 487.40771 
L 1193.727023 461.850458 
L 1155.561527 461.850458 
L 1160.672977 487.40771 
z
" style="fill:#76c476;stroke-dasharray:0,0;stroke-dashoffset:0;"/>
   </g>
   <g id="patch_27">
    <path clip-path="url(#p73e7e75de2)" d="M 1193.727023 512.964962 
L 1231.892519 512.964962 
L 1237.003969 487.40771 
L 1231.892519 461.850458 
L 1193.727023 461.850458 
L 1198.838473 487.40771 
z
" style="fill:#ffa24b;stroke-dasharray:0,0;stroke-dashoffset:0;"/>
   </g>
   <g id="patch_28">
    <path clip-path="url(#p73e7e75de2)" d="M 254.583206 456.739008 
L 315.920611 456.739008 
L 321.032061 426.070305 
L 259.694656 426.070305 
z
" style="fill:#76c476;"/>
   </g>
   <g id="patch_29">
    <path clip-path="url(#p73e7e75de2)" d="M 315.920611 456.739008 
L 377.258015 456.739008 
L 382.369466 426.070305 
L 321.032061 426.070305 
z
" style="fill:#ffa24b;"/>
   </g>
   <g id="patch_30">
    <path clip-path="url(#p73e7e75de2)" d="M 259.694656 426.070305 
L 300.58626 426.070305 
L 295.474809 395.401603 
L 254.583206 395.401603 
z
" style="fill:#76c476;"/>
   </g>
   <g id="patch_31">
    <path clip-path="url(#p73e7e75de2)" d="M 300.58626 426.070305 
L 341.477863 426.070305 
L 336.366412 395.401603 
L 295.474809 395.401603 
z
" style="fill:#8ccd8c;"/>
   </g>
   <g id="patch_32">
    <path clip-path="url(#p73e7e75de2)" d="M 341.477863 426.070305 
L 382.369466 426.070305 
L 377.258015 395.401603 
L 336.366412 395.401603 
z
" style="fill:#ffa24b;"/>
   </g>
   <g id="patch_33">
    <path clip-path="url(#p73e7e75de2)" d="M 377.258015 456.739008 
L 499.932824 456.739008 
L 505.044275 426.070305 
L 499.932824 395.401603 
L 377.258015 395.401603 
L 382.369466 426.070305 
z
" style="fill:#76c476;stroke:#000000;stroke-linejoin:miter;stroke-width:1.3;"/>
   </g>
   <g id="patch_34">
    <path clip-path="url(#p73e7e75de2)" d="M 499.932824 456.739008 
L 622.607634 456.739008 
L 627.719084 426.070305 
L 622.607634 395.401603 
L 499.932824 395.401603 
L 505.044275 426.070305 
z
" style="fill:#76c476;stroke:#000000;stroke-linejoin:miter;stroke-width:1.3;"/>
   </g>
   <g id="patch_35">
    <path clip-path="url(#p73e7e75de2)" d="M 622.607634 456.739008 
L 663.499237 456.739008 
L 668.610687 426.070305 
L 627.719084 426.070305 
z
" style="fill:#4a82c5;"/>
   </g>
   <g id="patch_36">
    <path clip-path="url(#p73e7e75de2)" d="M 663.499237 456.739008 
L 704.39084 456.739008 
L 709.50229 426.070305 
L 668.610687 426.070305 
z
" style="fill:#76c476;"/>
   </g>
   <g id="patch_37">
    <path clip-path="url(#p73e7e75de2)" d="M 704.39084 456.739008 
L 745.282443 456.739008 
L 750.393893 426.070305 
L 709.50229 426.070305 
z
" style="fill:#ffa24b;"/>
   </g>
   <g id="patch_38">
    <path clip-path="url(#p73e7e75de2)" d="M 627.719084 426.070305 
L 668.610687 426.070305 
L 663.499237 395.401603 
L 622.607634 395.401603 
z
" style="fill:#4a82c5;"/>
   </g>
   <g id="patch_39">
    <path clip-path="url(#p73e7e75de2)" d="M 668.610687 426.070305 
L 709.50229 426.070305 
L 704.39084 395.401603 
L 663.499237 395.401603 
z
" style="fill:#76c476;"/>
   </g>
   <g id="patch_40">
    <path clip-path="url(#p73e7e75de2)" d="M 709.50229 426.070305 
L 750.393893 426.070305 
L 745.282443 395.401603 
L 704.39084 395.401603 
z
" style="fill:#ffa24b;"/>
   </g>
   <g id="patch_41">
    <path clip-path="url(#p73e7e75de2)" d="M 254.583206 395.401603 
L 295.474809 395.401603 
L 300.58626 364.732901 
L 295.474809 334.064198 
L 254.583206 334.064198 
L 259.694656 364.732901 
z
" style="fill:#76c476;stroke-dasharray:0,0;stroke-dashoffset:0;"/>
   </g>
   <g id="patch_42">
    <path clip-path="url(#p73e7e75de2)" d="M 295.474809 395.401603 
L 336.366412 395.401603 
L 341.477863 364.732901 
L 336.366412 334.064198 
L 295.474809 334.064198 
L 300.58626 364.732901 
z
" style="fill:#8ccd8c;stroke-dasharray:0,0;stroke-dashoffset:0;"/>
   </g>
   <g id="patch_43">
    <path clip-path="url(#p73e7e75de2)" d="M 336.366412 395.401603 
L 377.258015 395.401603 
L 382.369466 364.732901 
L 377.258015 334.064198 
L 336.366412 334.064198 
L 341.477863 364.732901 
z
" style="fill:#ffa24b;stroke-dasharray:0,0;stroke-dashoffset:0;"/>
   </g>
   <g id="patch_44">
    <path clip-path="url(#p73e7e75de2)" d="M 499.932824 395.401603 
L 622.607634 395.401603 
L 627.719084 364.732901 
L 622.607634 334.064198 
L 499.932824 334.064198 
L 505.044275 364.732901 
z
" style="fill:#8ccd8c;stroke:#000000;stroke-dasharray:4.81,2.08;stroke-dashoffset:0;stroke-linejoin:miter;stroke-width:1.3;"/>
   </g>
   <g id="patch_45">
    <path clip-path="url(#p73e7e75de2)" d="M 622.607634 395.401603 
L 745.282443 395.401603 
L 750.393893 364.732901 
L 745.282443 334.064198 
L 622.607634 334.064198 
L 627.719084 364.732901 
z
" style="fill:#8ccd8c;stroke:#000000;stroke-dasharray:4.81,2.08;stroke-dashoffset:0;stroke-linejoin:miter;stroke-width:1.3;"/>
   </g>
   <g id="patch_46">
    <path clip-path="url(#p73e7e75de2)" d="M 745.282443 395.401603 
L 786.174046 395.401603 
L 791.285496 364.732901 
L 786.174046 334.064198 
L 745.282443 334.064198 
L 750.393893 364.732901 
z
" style="fill:#5f90cb;stroke-dasharray:0,0;stroke-dashoffset:0;"/>
   </g>
   <g id="patch_47">
    <path clip-path="url(#p73e7e75de2)" d="M 786.174046 395.401603 
L 827.065649 395.401603 
L 832.177099 364.732901 
L 827.065649 334.064198 
L 786.174046 334.064198 
L 791.285496 364.732901 
z
" style="fill:#8ccd8c;stroke-dasharray:0,0;stroke-dashoffset:0;"/>
   </g>
   <g id="patch_48">
    <path clip-path="url(#p73e7e75de2)" d="M 827.065649 395.401603 
L 867.957252 395.401603 
L 873.068702 364.732901 
L 867.957252 334.064198 
L 827.065649 334.064198 
L 832.177099 364.732901 
z
" style="fill:#ffa24b;stroke-dasharray:0,0;stroke-dashoffset:0;"/>
   </g>
   <g id="patch_49">
    <path clip-path="url(#p73e7e75de2)" d="M 499.932824 334.064198 
L 622.607634 334.064198 
L 627.719084 303.395496 
L 622.607634 272.726794 
L 499.932824 272.726794 
L 505.044275 303.395496 
z
" style="fill:#4a82c5;stroke:#000000;stroke-linejoin:miter;stroke-width:1.3;"/>
   </g>
   <g id="patch_50">
    <path clip-path="url(#p73e7e75de2)" d="M 622.607634 334.064198 
L 663.499237 334.064198 
L 668.610687 303.395496 
L 627.719084 303.395496 
z
" style="fill:#4a82c5;"/>
   </g>
   <g id="patch_51">
    <path clip-path="url(#p73e7e75de2)" d="M 663.499237 334.064198 
L 704.39084 334.064198 
L 709.50229 303.395496 
L 668.610687 303.395496 
z
" style="fill:#76c476;"/>
   </g>
   <g id="patch_52">
    <path clip-path="url(#p73e7e75de2)" d="M 704.39084 334.064198 
L 745.282443 334.064198 
L 750.393893 303.395496 
L 709.50229 303.395496 
z
" style="fill:#ffa24b;"/>
   </g>
   <g id="patch_53">
    <path clip-path="url(#p73e7e75de2)" d="M 627.719084 303.395496 
L 668.610687 303.395496 
L 663.499237 272.726794 
L 622.607634 272.726794 
z
" style="fill:#4a82c5;"/>
   </g>
   <g id="patch_54">
    <path clip-path="url(#p73e7e75de2)" d="M 668.610687 303.395496 
L 709.50229 303.395496 
L 704.39084 272.726794 
L 663.499237 272.726794 
z
" style="fill:#76c476;"/>
   </g>
   <g id="patch_55">
    <path clip-path="url(#p73e7e75de2)" d="M 709.50229 303.395496 
L 750.393893 303.395496 
L 745.282443 272.726794 
L 704.39084 272.726794 
z
" style="fill:#ffa24b;"/>
   </g>
   <g id="patch_56">
    <path clip-path="url(#p73e7e75de2)" d="M 749.371603 328.952748 
L 863.868092 328.952748 
L 868.979542 303.395496 
L 863.868092 277.838244 
L 749.371603 277.838244 
L 754.483053 303.395496 
z
" style="fill:#4a82c5;stroke:#000000;stroke-dasharray:4.489333,1.941333;stroke-dashoffset:0;stroke-linejoin:miter;stroke-width:1.213333;"/>
   </g>
   <g id="patch_57">
    <path clip-path="url(#p73e7e75de2)" d="M 622.607634 272.726794 
L 745.282443 272.726794 
L 750.393893 242.058092 
L 745.282443 211.389389 
L 622.607634 211.389389 
L 627.719084 242.058092 
z
" style="fill:#5f90cb;stroke:#000000;stroke-dasharray:4.81,2.08;stroke-dashoffset:0;stroke-linejoin:miter;stroke-width:1.3;"/>
   </g>
   <g id="patch_58">
    <path clip-path="url(#p73e7e75de2)" d="M 745.282443 272.726794 
L 786.174046 272.726794 
L 791.285496 242.058092 
L 786.174046 211.389389 
L 745.282443 211.389389 
L 750.393893 242.058092 
z
" style="fill:#5f90cb;stroke-dasharray:0,0;stroke-dashoffset:0;"/>
   </g>
   <g id="patch_59">
    <path clip-path="url(#p73e7e75de2)" d="M 786.174046 272.726794 
L 827.065649 272.726794 
L 832.177099 242.058092 
L 827.065649 211.389389 
L 786.174046 211.389389 
L 791.285496 242.058092 
z
" style="fill:#8ccd8c;stroke-dasharray:0,0;stroke-dashoffset:0;"/>
   </g>
   <g id="patch_60">
    <path clip-path="url(#p73e7e75de2)" d="M 827.065649 272.726794 
L 867.957252 272.726794 
L 873.068702 242.058092 
L 867.957252 211.389389 
L 827.065649 211.389389 
L 832.177099 242.058092 
z
" style="fill:#ffa24b;stroke-dasharray:0,0;stroke-dashoffset:0;"/>
   </g>
   <g id="text_1">
    <!-- 1 -->
    <g transform="translate(172.8 488.634458)scale(0.09 -0.09)">
     <defs>
      <path d="M 12.40625 8.296875 
L 28.515625 8.296875 
L 28.515625 63.921875 
L 10.984375 60.40625 
L 10.984375 69.390625 
L 28.421875 72.90625 
L 38.28125 72.90625 
L 38.28125 8.296875 
L 54.390625 8.296875 
L 54.390625 0 
L 12.40625 0 
z
" id="DejaVuSans-49"/>
     </defs>
     <use xlink:href="#DejaVuSans-49"/>
    </g>
   </g>
   <g id="text_2">
    <!-- a 0 -->
    <g transform="translate(197.334962 488.634458)scale(0.09 -0.09)">
     <defs>
      <path d="M 34.28125 27.484375 
Q 23.390625 27.484375 19.1875 25 
Q 14.984375 22.515625 14.984375 16.5 
Q 14.984375 11.71875 18.140625 8.90625 
Q 21.296875 6.109375 26.703125 6.109375 
Q 34.1875 6.109375 38.703125 11.40625 
Q 43.21875 16.703125 43.21875 25.484375 
L 43.21875 27.484375 
z
M 52.203125 31.203125 
L 52.203125 0 
L 43.21875 0 
L 43.21875 8.296875 
Q 40.140625 3.328125 35.546875 0.953125 
Q 30.953125 -1.421875 24.3125 -1.421875 
Q 15.921875 -1.421875 10.953125 3.296875 
Q 6 8.015625 6 15.921875 
Q 6 25.140625 12.171875 29.828125 
Q 18.359375 34.515625 30.609375 34.515625 
L 43.21875 34.515625 
L 43.21875 35.40625 
Q 43.21875 41.609375 39.140625 45 
Q 35.0625 48.390625 27.6875 48.390625 
Q 23 48.390625 18.546875 47.265625 
Q 14.109375 46.140625 10.015625 43.890625 
L 10.015625 52.203125 
Q 14.9375 54.109375 19.578125 55.046875 
Q 24.21875 56 28.609375 56 
Q 40.484375 56 46.34375 49.84375 
Q 52.203125 43.703125 52.203125 31.203125 
z
" id="DejaVuSans-97"/>
      <path id="DejaVuSans-32"/>
      <path d="M 31.78125 66.40625 
Q 24.171875 66.40625 20.328125 58.90625 
Q 16.5 51.421875 16.5 36.375 
Q 16.5 21.390625 20.328125 13.890625 
Q 24.171875 6.390625 31.78125 6.390625 
Q 39.453125 6.390625 43.28125 13.890625 
Q 47.125 21.390625 47.125 36.375 
Q 47.125 51.421875 43.28125 58.90625 
Q 39.453125 66.40625 31.78125 66.40625 
z
M 31.78125 74.21875 
Q 44.046875 74.21875 50.515625 64.515625 
Q 56.984375 54.828125 56.984375 36.375 
Q 56.984375 17.96875 50.515625 8.265625 
Q 44.046875 -1.421875 31.78125 -1.421875 
Q 19.53125 -1.421875 13.0625 8.265625 
Q 6.59375 17.96875 6.59375 36.375 
Q 6.59375 54.828125 13.0625 64.515625 
Q 19.53125 74.21875 31.78125 74.21875 
z
" id="DejaVuSans-48"/>
     </defs>
     <use xlink:href="#DejaVuSans-97"/>
     <use x="61.279297" xlink:href="#DejaVuSans-32"/>
     <use x="93.066406" xlink:href="#DejaVuSans-48"/>
    </g>
   </g>
   <g id="text_3">
    <!-- 1 -->
    <g transform="translate(172.8 427.297053)scale(0.09 -0.09)">
     <use xlink:href="#DejaVuSans-49"/>
    </g>
   </g>
   <g id="text_4">
    <!-- b 0 -->
    <g transform="translate(197.334962 427.297053)scale(0.09 -0.09)">
     <defs>
      <path d="M 48.6875 27.296875 
Q 48.6875 37.203125 44.609375 42.84375 
Q 40.53125 48.484375 33.40625 48.484375 
Q 26.265625 48.484375 22.1875 42.84375 
Q 18.109375 37.203125 18.109375 27.296875 
Q 18.109375 17.390625 22.1875 11.75 
Q 26.265625 6.109375 33.40625 6.109375 
Q 40.53125 6.109375 44.609375 11.75 
Q 48.6875 17.390625 48.6875 27.296875 
z
M 18.109375 46.390625 
Q 20.953125 51.265625 25.265625 53.625 
Q 29.59375 56 35.59375 56 
Q 45.5625 56 51.78125 48.09375 
Q 58.015625 40.1875 58.015625 27.296875 
Q 58.015625 14.40625 51.78125 6.484375 
Q 45.5625 -1.421875 35.59375 -1.421875 
Q 29.59375 -1.421875 25.265625 0.953125 
Q 20.953125 3.328125 18.109375 8.203125 
L 18.109375 0 
L 9.078125 0 
L 9.078125 75.984375 
L 18.109375 75.984375 
z
" id="DejaVuSans-98"/>
     </defs>
     <use xlink:href="#DejaVuSans-98"/>
     <use x="63.476562" xlink:href="#DejaVuSans-32"/>
     <use x="95.263672" xlink:href="#DejaVuSans-48"/>
    </g>
   </g>
   <g id="text_5">
    <!-- 1 -->
    <g transform="translate(172.8 365.959649)scale(0.09 -0.09)">
     <use xlink:href="#DejaVuSans-49"/>
    </g>
   </g>
   <g id="text_6">
    <!-- b 1 -->
    <g transform="translate(197.334962 365.959649)scale(0.09 -0.09)">
     <use xlink:href="#DejaVuSans-98"/>
     <use x="63.476562" xlink:href="#DejaVuSans-32"/>
     <use x="95.263672" xlink:href="#DejaVuSans-49"/>
    </g>
   </g>
   <g id="text_7">
    <!-- 1 -->
    <g transform="translate(172.8 304.622244)scale(0.09 -0.09)">
     <use xlink:href="#DejaVuSans-49"/>
    </g>
   </g>
   <g id="text_8">
    <!-- c 0 -->
    <g transform="translate(197.334962 304.622244)scale(0.09 -0.09)">
     <defs>
      <path d="M 48.78125 52.59375 
L 48.78125 44.1875 
Q 44.96875 46.296875 41.140625 47.34375 
Q 37.3125 48.390625 33.40625 48.390625 
Q 24.65625 48.390625 19.8125 42.84375 
Q 14.984375 37.3125 14.984375 27.296875 
Q 14.984375 17.28125 19.8125 11.734375 
Q 24.65625 6.203125 33.40625 6.203125 
Q 37.3125 6.203125 41.140625 7.25 
Q 44.96875 8.296875 48.78125 10.40625 
L 48.78125 2.09375 
Q 45.015625 0.34375 40.984375 -0.53125 
Q 36.96875 -1.421875 32.421875 -1.421875 
Q 20.0625 -1.421875 12.78125 6.34375 
Q 5.515625 14.109375 5.515625 27.296875 
Q 5.515625 40.671875 12.859375 48.328125 
Q 20.21875 56 33.015625 56 
Q 37.15625 56 41.109375 55.140625 
Q 45.0625 54.296875 48.78125 52.59375 
z
" id="DejaVuSans-99"/>
     </defs>
     <use xlink:href="#DejaVuSans-99"/>
     <use x="54.980469" xlink:href="#DejaVuSans-32"/>
     <use x="86.767578" xlink:href="#DejaVuSans-48"/>
    </g>
   </g>
   <g id="text_9">
    <!-- 1 -->
    <g transform="translate(172.8 243.28484)scale(0.09 -0.09)">
     <use xlink:href="#DejaVuSans-49"/>
    </g>
   </g>
   <g id="text_10">
    <!-- c 1 -->
    <g transform="translate(197.334962 243.28484)scale(0.09 -0.09)">
     <use xlink:href="#DejaVuSans-99"/>
     <use x="54.980469" xlink:href="#DejaVuSans-32"/>
     <use x="86.767578" xlink:href="#DejaVuSans-49"/>
    </g>
   </g>
   <g id="text_11">
    <!-- Frequency: 0.571 -->
    <g transform="translate(193.245802 208.526977)scale(0.09 -0.09)">
     <defs>
      <path d="M 9.8125 72.90625 
L 51.703125 72.90625 
L 51.703125 64.59375 
L 19.671875 64.59375 
L 19.671875 43.109375 
L 48.578125 43.109375 
L 48.578125 34.8125 
L 19.671875 34.8125 
L 19.671875 0 
L 9.8125 0 
z
" id="DejaVuSans-70"/>
      <path d="M 41.109375 46.296875 
Q 39.59375 47.171875 37.8125 47.578125 
Q 36.03125 48 33.890625 48 
Q 26.265625 48 22.1875 43.046875 
Q 18.109375 38.09375 18.109375 28.8125 
L 18.109375 0 
L 9.078125 0 
L 9.078125 54.6875 
L 18.109375 54.6875 
L 18.109375 46.1875 
Q 20.953125 51.171875 25.484375 53.578125 
Q 30.03125 56 36.53125 56 
Q 37.453125 56 38.578125 55.875 
Q 39.703125 55.765625 41.0625 55.515625 
z
" id="DejaVuSans-114"/>
      <path d="M 56.203125 29.59375 
L 56.203125 25.203125 
L 14.890625 25.203125 
Q 15.484375 15.921875 20.484375 11.0625 
Q 25.484375 6.203125 34.421875 6.203125 
Q 39.59375 6.203125 44.453125 7.46875 
Q 49.3125 8.734375 54.109375 11.28125 
L 54.109375 2.78125 
Q 49.265625 0.734375 44.1875 -0.34375 
Q 39.109375 -1.421875 33.890625 -1.421875 
Q 20.796875 -1.421875 13.15625 6.1875 
Q 5.515625 13.8125 5.515625 26.8125 
Q 5.515625 40.234375 12.765625 48.109375 
Q 20.015625 56 32.328125 56 
Q 43.359375 56 49.78125 48.890625 
Q 56.203125 41.796875 56.203125 29.59375 
z
M 47.21875 32.234375 
Q 47.125 39.59375 43.09375 43.984375 
Q 39.0625 48.390625 32.421875 48.390625 
Q 24.90625 48.390625 20.390625 44.140625 
Q 15.875 39.890625 15.1875 32.171875 
z
" id="DejaVuSans-101"/>
      <path d="M 14.796875 27.296875 
Q 14.796875 17.390625 18.875 11.75 
Q 22.953125 6.109375 30.078125 6.109375 
Q 37.203125 6.109375 41.296875 11.75 
Q 45.40625 17.390625 45.40625 27.296875 
Q 45.40625 37.203125 41.296875 42.84375 
Q 37.203125 48.484375 30.078125 48.484375 
Q 22.953125 48.484375 18.875 42.84375 
Q 14.796875 37.203125 14.796875 27.296875 
z
M 45.40625 8.203125 
Q 42.578125 3.328125 38.25 0.953125 
Q 33.9375 -1.421875 27.875 -1.421875 
Q 17.96875 -1.421875 11.734375 6.484375 
Q 5.515625 14.40625 5.515625 27.296875 
Q 5.515625 40.1875 11.734375 48.09375 
Q 17.96875 56 27.875 56 
Q 33.9375 56 38.25 53.625 
Q 42.578125 51.265625 45.40625 46.390625 
L 45.40625 54.6875 
L 54.390625 54.6875 
L 54.390625 -20.796875 
L 45.40625 -20.796875 
z
" id="DejaVuSans-113"/>
      <path d="M 8.5 21.578125 
L 8.5 54.6875 
L 17.484375 54.6875 
L 17.484375 21.921875 
Q 17.484375 14.15625 20.5 10.265625 
Q 23.53125 6.390625 29.59375 6.390625 
Q 36.859375 6.390625 41.078125 11.03125 
Q 45.3125 15.671875 45.3125 23.6875 
L 45.3125 54.6875 
L 54.296875 54.6875 
L 54.296875 0 
L 45.3125 0 
L 45.3125 8.40625 
Q 42.046875 3.421875 37.71875 1 
Q 33.40625 -1.421875 27.6875 -1.421875 
Q 18.265625 -1.421875 13.375 4.4375 
Q 8.5 10.296875 8.5 21.578125 
z
M 31.109375 56 
z
" id="DejaVuSans-117"/>
      <path d="M 54.890625 33.015625 
L 54.890625 0 
L 45.90625 0 
L 45.90625 32.71875 
Q 45.90625 40.484375 42.875 44.328125 
Q 39.84375 48.1875 33.796875 48.1875 
Q 26.515625 48.1875 22.3125 43.546875 
Q 18.109375 38.921875 18.109375 30.90625 
L 18.109375 0 
L 9.078125 0 
L 9.078125 54.6875 
L 18.109375 54.6875 
L 18.109375 46.1875 
Q 21.34375 51.125 25.703125 53.5625 
Q 30.078125 56 35.796875 56 
Q 45.21875 56 50.046875 50.171875 
Q 54.890625 44.34375 54.890625 33.015625 
z
" id="DejaVuSans-110"/>
      <path d="M 32.171875 -5.078125 
Q 28.375 -14.84375 24.75 -17.8125 
Q 21.140625 -20.796875 15.09375 -20.796875 
L 7.90625 -20.796875 
L 7.90625 -13.28125 
L 13.1875 -13.28125 
Q 16.890625 -13.28125 18.9375 -11.515625 
Q 21 -9.765625 23.484375 -3.21875 
L 25.09375 0.875 
L 2.984375 54.6875 
L 12.5 54.6875 
L 29.59375 11.921875 
L 46.6875 54.6875 
L 56.203125 54.6875 
z
" id="DejaVuSans-121"/>
      <path d="M 11.71875 12.40625 
L 22.015625 12.40625 
L 22.015625 0 
L 11.71875 0 
z
M 11.71875 51.703125 
L 22.015625 51.703125 
L 22.015625 39.3125 
L 11.71875 39.3125 
z
" id="DejaVuSans-58"/>
      <path d="M 10.6875 12.40625 
L 21 12.40625 
L 21 0 
L 10.6875 0 
z
" id="DejaVuSans-46"/>
      <path d="M 10.796875 72.90625 
L 49.515625 72.90625 
L 49.515625 64.59375 
L 19.828125 64.59375 
L 19.828125 46.734375 
Q 21.96875 47.46875 24.109375 47.828125 
Q 26.265625 48.1875 28.421875 48.1875 
Q 40.625 48.1875 47.75 41.5 
Q 54.890625 34.8125 54.890625 23.390625 
Q 54.890625 11.625 47.5625 5.09375 
Q 40.234375 -1.421875 26.90625 -1.421875 
Q 22.3125 -1.421875 17.546875 -0.640625 
Q 12.796875 0.140625 7.71875 1.703125 
L 7.71875 11.625 
Q 12.109375 9.234375 16.796875 8.0625 
Q 21.484375 6.890625 26.703125 6.890625 
Q 35.15625 6.890625 40.078125 11.328125 
Q 45.015625 15.765625 45.015625 23.390625 
Q 45.015625 31 40.078125 35.4375 
Q 35.15625 39.890625 26.703125 39.890625 
Q 22.75 39.890625 18.8125 39.015625 
Q 14.890625 38.140625 10.796875 36.28125 
z
" id="DejaVuSans-53"/>
      <path d="M 8.203125 72.90625 
L 55.078125 72.90625 
L 55.078125 68.703125 
L 28.609375 0 
L 18.3125 0 
L 43.21875 64.59375 
L 8.203125 64.59375 
z
" id="DejaVuSans-55"/>
     </defs>
     <use xlink:href="#DejaVuSans-70"/>
     <use x="50.269531" xlink:href="#DejaVuSans-114"/>
     <use x="89.132812" xlink:href="#DejaVuSans-101"/>
     <use x="150.65625" xlink:href="#DejaVuSans-113"/>
     <use x="214.132812" xlink:href="#DejaVuSans-117"/>
     <use x="277.511719" xlink:href="#DejaVuSans-101"/>
     <use x="339.035156" xlink:href="#DejaVuSans-110"/>
     <use x="402.414062" xlink:href="#DejaVuSans-99"/>
     <use x="457.394531" xlink:href="#DejaVuSans-121"/>
     <use x="509.324219" xlink:href="#DejaVuSans-58"/>
     <use x="543.015625" xlink:href="#DejaVuSans-32"/>
     <use x="574.802734" xlink:href="#DejaVuSans-48"/>
     <use x="638.425781" xlink:href="#DejaVuSans-46"/>
     <use x="670.212891" xlink:href="#DejaVuSans-53"/>
     <use x="733.835938" xlink:href="#DejaVuSans-55"/>
     <use x="797.458984" xlink:href="#DejaVuSans-49"/>
    </g>
   </g>
   <g id="text_12">
    <!-- Super Variant: (0, 2) -->
    <g transform="translate(193.245802 190.943588)scale(0.108 -0.108)">
     <defs>
      <path d="M 59.90625 70.609375 
L 59.90625 55.171875 
Q 53.90625 57.859375 48.1875 59.21875 
Q 42.484375 60.59375 37.40625 60.59375 
Q 30.671875 60.59375 27.4375 58.734375 
Q 24.21875 56.890625 24.21875 52.984375 
Q 24.21875 50.046875 26.390625 48.40625 
Q 28.5625 46.78125 34.28125 45.609375 
L 42.28125 44 
Q 54.4375 41.546875 59.5625 36.5625 
Q 64.703125 31.59375 64.703125 22.40625 
Q 64.703125 10.359375 57.546875 4.46875 
Q 50.390625 -1.421875 35.6875 -1.421875 
Q 28.765625 -1.421875 21.78125 -0.09375 
Q 14.796875 1.21875 7.8125 3.8125 
L 7.8125 19.671875 
Q 14.796875 15.96875 21.3125 14.078125 
Q 27.828125 12.203125 33.890625 12.203125 
Q 40.046875 12.203125 43.3125 14.25 
Q 46.578125 16.3125 46.578125 20.125 
Q 46.578125 23.53125 44.359375 25.390625 
Q 42.140625 27.25 35.5 28.71875 
L 28.21875 30.328125 
Q 17.28125 32.671875 12.21875 37.796875 
Q 7.171875 42.921875 7.171875 51.609375 
Q 7.171875 62.5 14.203125 68.359375 
Q 21.234375 74.21875 34.421875 74.21875 
Q 40.4375 74.21875 46.78125 73.3125 
Q 53.125 72.40625 59.90625 70.609375 
z
" id="DejaVuSans-Bold-83"/>
      <path d="M 7.8125 21.296875 
L 7.8125 54.6875 
L 25.390625 54.6875 
L 25.390625 49.21875 
Q 25.390625 44.78125 25.34375 38.0625 
Q 25.296875 31.34375 25.296875 29.109375 
Q 25.296875 22.515625 25.640625 19.609375 
Q 25.984375 16.703125 26.8125 15.375 
Q 27.875 13.671875 29.609375 12.734375 
Q 31.34375 11.8125 33.59375 11.8125 
Q 39.0625 11.8125 42.1875 16.015625 
Q 45.3125 20.21875 45.3125 27.6875 
L 45.3125 54.6875 
L 62.796875 54.6875 
L 62.796875 0 
L 45.3125 0 
L 45.3125 7.90625 
Q 41.359375 3.125 36.9375 0.84375 
Q 32.515625 -1.421875 27.203125 -1.421875 
Q 17.71875 -1.421875 12.765625 4.390625 
Q 7.8125 10.203125 7.8125 21.296875 
z
" id="DejaVuSans-Bold-117"/>
      <path d="M 25.875 7.90625 
L 25.875 -20.796875 
L 8.40625 -20.796875 
L 8.40625 54.6875 
L 25.875 54.6875 
L 25.875 46.6875 
Q 29.5 51.46875 33.890625 53.734375 
Q 38.28125 56 44 56 
Q 54.109375 56 60.59375 47.96875 
Q 67.09375 39.9375 67.09375 27.296875 
Q 67.09375 14.65625 60.59375 6.609375 
Q 54.109375 -1.421875 44 -1.421875 
Q 38.28125 -1.421875 33.890625 0.84375 
Q 29.5 3.125 25.875 7.90625 
z
M 37.5 43.3125 
Q 31.890625 43.3125 28.875 39.1875 
Q 25.875 35.0625 25.875 27.296875 
Q 25.875 19.53125 28.875 15.40625 
Q 31.890625 11.28125 37.5 11.28125 
Q 43.109375 11.28125 46.0625 15.375 
Q 49.03125 19.484375 49.03125 27.296875 
Q 49.03125 35.109375 46.0625 39.203125 
Q 43.109375 43.3125 37.5 43.3125 
z
" id="DejaVuSans-Bold-112"/>
      <path d="M 62.984375 27.484375 
L 62.984375 22.515625 
L 22.125 22.515625 
Q 22.75 16.359375 26.5625 13.28125 
Q 30.375 10.203125 37.203125 10.203125 
Q 42.71875 10.203125 48.5 11.84375 
Q 54.296875 13.484375 60.40625 16.796875 
L 60.40625 3.328125 
Q 54.203125 0.984375 48 -0.21875 
Q 41.796875 -1.421875 35.59375 -1.421875 
Q 20.75 -1.421875 12.515625 6.125 
Q 4.296875 13.671875 4.296875 27.296875 
Q 4.296875 40.671875 12.375 48.328125 
Q 20.453125 56 34.625 56 
Q 47.515625 56 55.25 48.234375 
Q 62.984375 40.484375 62.984375 27.484375 
z
M 45.015625 33.296875 
Q 45.015625 38.28125 42.109375 41.328125 
Q 39.203125 44.390625 34.515625 44.390625 
Q 29.4375 44.390625 26.265625 41.53125 
Q 23.09375 38.671875 22.3125 33.296875 
z
" id="DejaVuSans-Bold-101"/>
      <path d="M 49.03125 39.796875 
Q 46.734375 40.875 44.453125 41.375 
Q 42.1875 41.890625 39.890625 41.890625 
Q 33.15625 41.890625 29.515625 37.5625 
Q 25.875 33.25 25.875 25.203125 
L 25.875 0 
L 8.40625 0 
L 8.40625 54.6875 
L 25.875 54.6875 
L 25.875 45.703125 
Q 29.25 51.078125 33.609375 53.53125 
Q 37.984375 56 44.09375 56 
Q 44.96875 56 45.984375 55.921875 
Q 47.015625 55.859375 48.96875 55.609375 
z
" id="DejaVuSans-Bold-114"/>
      <path id="DejaVuSans-Bold-32"/>
      <path d="M 0.484375 72.90625 
L 19.390625 72.90625 
L 38.71875 19.09375 
L 58.015625 72.90625 
L 76.90625 72.90625 
L 49.90625 0 
L 27.484375 0 
z
" id="DejaVuSans-Bold-86"/>
      <path d="M 32.90625 24.609375 
Q 27.4375 24.609375 24.671875 22.75 
Q 21.921875 20.90625 21.921875 17.28125 
Q 21.921875 13.96875 24.140625 12.078125 
Q 26.375 10.203125 30.328125 10.203125 
Q 35.25 10.203125 38.625 13.734375 
Q 42 17.28125 42 22.609375 
L 42 24.609375 
z
M 59.625 31.203125 
L 59.625 0 
L 42 0 
L 42 8.109375 
Q 38.484375 3.125 34.078125 0.84375 
Q 29.6875 -1.421875 23.390625 -1.421875 
Q 14.890625 -1.421875 9.59375 3.53125 
Q 4.296875 8.5 4.296875 16.40625 
Q 4.296875 26.03125 10.90625 30.515625 
Q 17.53125 35.015625 31.6875 35.015625 
L 42 35.015625 
L 42 36.375 
Q 42 40.53125 38.71875 42.453125 
Q 35.453125 44.390625 28.515625 44.390625 
Q 22.90625 44.390625 18.0625 43.265625 
Q 13.234375 42.140625 9.078125 39.890625 
L 9.078125 53.21875 
Q 14.703125 54.59375 20.359375 55.296875 
Q 26.03125 56 31.6875 56 
Q 46.484375 56 53.046875 50.171875 
Q 59.625 44.34375 59.625 31.203125 
z
" id="DejaVuSans-Bold-97"/>
      <path d="M 8.40625 54.6875 
L 25.875 54.6875 
L 25.875 0 
L 8.40625 0 
z
M 8.40625 75.984375 
L 25.875 75.984375 
L 25.875 61.71875 
L 8.40625 61.71875 
z
" id="DejaVuSans-Bold-105"/>
      <path d="M 63.375 33.296875 
L 63.375 0 
L 45.796875 0 
L 45.796875 5.421875 
L 45.796875 25.484375 
Q 45.796875 32.5625 45.484375 35.25 
Q 45.171875 37.9375 44.390625 39.203125 
Q 43.359375 40.921875 41.59375 41.875 
Q 39.84375 42.828125 37.59375 42.828125 
Q 32.125 42.828125 29 38.59375 
Q 25.875 34.375 25.875 26.90625 
L 25.875 0 
L 8.40625 0 
L 8.40625 54.6875 
L 25.875 54.6875 
L 25.875 46.6875 
Q 29.828125 51.46875 34.265625 53.734375 
Q 38.71875 56 44.09375 56 
Q 53.5625 56 58.46875 50.1875 
Q 63.375 44.390625 63.375 33.296875 
z
" id="DejaVuSans-Bold-110"/>
      <path d="M 27.484375 70.21875 
L 27.484375 54.6875 
L 45.515625 54.6875 
L 45.515625 42.1875 
L 27.484375 42.1875 
L 27.484375 19 
Q 27.484375 15.1875 29 13.84375 
Q 30.515625 12.5 35.015625 12.5 
L 44 12.5 
L 44 0 
L 29 0 
Q 18.65625 0 14.328125 4.3125 
Q 10.015625 8.640625 10.015625 19 
L 10.015625 42.1875 
L 1.3125 42.1875 
L 1.3125 54.6875 
L 10.015625 54.6875 
L 10.015625 70.21875 
z
" id="DejaVuSans-Bold-116"/>
      <path d="M 11.1875 54.6875 
L 28.8125 54.6875 
L 28.8125 35.796875 
L 11.1875 35.796875 
z
M 11.1875 18.890625 
L 28.8125 18.890625 
L 28.8125 0 
L 11.1875 0 
z
" id="DejaVuSans-Bold-58"/>
      <path d="M 37.703125 -13.1875 
L 23.1875 -13.1875 
Q 15.71875 -1.125 12.15625 9.734375 
Q 8.59375 20.609375 8.59375 31.296875 
Q 8.59375 42 12.171875 52.953125 
Q 15.765625 63.921875 23.1875 75.875 
L 37.703125 75.875 
Q 31.453125 64.3125 28.328125 53.25 
Q 25.203125 42.1875 25.203125 31.390625 
Q 25.203125 20.609375 28.296875 9.515625 
Q 31.390625 -1.5625 37.703125 -13.1875 
z
" id="DejaVuSans-Bold-40"/>
      <path d="M 46 36.53125 
Q 46 50.203125 43.4375 55.78125 
Q 40.875 61.375 34.8125 61.375 
Q 28.765625 61.375 26.171875 55.78125 
Q 23.578125 50.203125 23.578125 36.53125 
Q 23.578125 22.703125 26.171875 17.03125 
Q 28.765625 11.375 34.8125 11.375 
Q 40.828125 11.375 43.40625 17.03125 
Q 46 22.703125 46 36.53125 
z
M 64.796875 36.375 
Q 64.796875 18.265625 56.984375 8.421875 
Q 49.171875 -1.421875 34.8125 -1.421875 
Q 20.40625 -1.421875 12.59375 8.421875 
Q 4.78125 18.265625 4.78125 36.375 
Q 4.78125 54.546875 12.59375 64.375 
Q 20.40625 74.21875 34.8125 74.21875 
Q 49.171875 74.21875 56.984375 64.375 
Q 64.796875 54.546875 64.796875 36.375 
z
" id="DejaVuSans-Bold-48"/>
      <path d="M 10.203125 18.890625 
L 27.78125 18.890625 
L 27.78125 4 
L 15.71875 -14.203125 
L 5.328125 -14.203125 
L 10.203125 4 
z
" id="DejaVuSans-Bold-44"/>
      <path d="M 28.8125 13.8125 
L 60.890625 13.8125 
L 60.890625 0 
L 7.90625 0 
L 7.90625 13.8125 
L 34.515625 37.3125 
Q 38.09375 40.53125 39.796875 43.609375 
Q 41.5 46.6875 41.5 50 
Q 41.5 55.125 38.0625 58.25 
Q 34.625 61.375 28.90625 61.375 
Q 24.515625 61.375 19.28125 59.5 
Q 14.0625 57.625 8.109375 53.90625 
L 8.109375 69.921875 
Q 14.453125 72.015625 20.65625 73.109375 
Q 26.859375 74.21875 32.8125 74.21875 
Q 45.90625 74.21875 53.15625 68.453125 
Q 60.40625 62.703125 60.40625 52.390625 
Q 60.40625 46.4375 57.328125 41.28125 
Q 54.25 36.140625 44.390625 27.484375 
z
" id="DejaVuSans-Bold-50"/>
      <path d="M 8.015625 -13.1875 
Q 14.265625 -1.5625 17.390625 9.515625 
Q 20.515625 20.609375 20.515625 31.390625 
Q 20.515625 42.1875 17.390625 53.25 
Q 14.265625 64.3125 8.015625 75.875 
L 22.515625 75.875 
Q 29.9375 63.921875 33.515625 52.953125 
Q 37.109375 42 37.109375 31.296875 
Q 37.109375 20.609375 33.546875 9.734375 
Q 29.984375 -1.125 22.515625 -13.1875 
z
" id="DejaVuSans-Bold-41"/>
     </defs>
     <use xlink:href="#DejaVuSans-Bold-83"/>
     <use x="72.021484" xlink:href="#DejaVuSans-Bold-117"/>
     <use x="143.212891" xlink:href="#DejaVuSans-Bold-112"/>
     <use x="214.794922" xlink:href="#DejaVuSans-Bold-101"/>
     <use x="282.617188" xlink:href="#DejaVuSans-Bold-114"/>
     <use x="331.933594" xlink:href="#DejaVuSans-Bold-32"/>
     <use x="366.748047" xlink:href="#DejaVuSans-Bold-86"/>
     <use x="438.640625" xlink:href="#DejaVuSans-Bold-97"/>
     <use x="506.121094" xlink:href="#DejaVuSans-Bold-114"/>
     <use x="555.4375" xlink:href="#DejaVuSans-Bold-105"/>
     <use x="589.714844" xlink:href="#DejaVuSans-Bold-97"/>
     <use x="657.195312" xlink:href="#DejaVuSans-Bold-110"/>
     <use x="728.386719" xlink:href="#DejaVuSans-Bold-116"/>
     <use x="776.189453" xlink:href="#DejaVuSans-Bold-58"/>
     <use x="816.179688" xlink:href="#DejaVuSans-Bold-32"/>
     <use x="850.994141" xlink:href="#DejaVuSans-Bold-40"/>
     <use x="896.697266" xlink:href="#DejaVuSans-Bold-48"/>
     <use x="966.277344" xlink:href="#DejaVuSans-Bold-44"/>
     <use x="1004.265625" xlink:href="#DejaVuSans-Bold-32"/>
     <use x="1039.080078" xlink:href="#DejaVuSans-Bold-50"/>
     <use x="1108.660156" xlink:href="#DejaVuSans-Bold-41"/>
    </g>
   </g>
   <g id="patch_61">
    <path clip-path="url(#p73e7e75de2)" d="M 254.583206 518.076412 
L 377.258015 518.076412 
L 382.369466 487.40771 
L 377.258015 456.739008 
L 254.583206 456.739008 
L 259.694656 487.40771 
z
" style="fill:none;stroke:#000000;stroke-linejoin:miter;stroke-width:1.3;"/>
   </g>
   <g id="patch_62">
    <path clip-path="url(#p73e7e75de2)" d="M 622.607634 512.964962 
L 743.237863 512.964962 
L 748.349313 487.40771 
L 743.237863 461.850458 
L 622.607634 461.850458 
L 627.719084 487.40771 
z
" style="fill:none;stroke:#000000;stroke-dasharray:4.729833,2.045333;stroke-dashoffset:0;stroke-linejoin:miter;stroke-width:1.278333;"/>
   </g>
   <g id="patch_63">
    <path clip-path="url(#p73e7e75de2)" d="M 743.237863 512.964962 
L 863.868092 512.964962 
L 868.979542 487.40771 
L 863.868092 461.850458 
L 743.237863 461.850458 
L 748.349313 487.40771 
z
" style="fill:none;stroke:#000000;stroke-dasharray:4.729833,2.045333;stroke-dashoffset:0;stroke-linejoin:miter;stroke-width:1.278333;"/>
   </g>
   <g id="patch_64">
    <path clip-path="url(#p73e7e75de2)" d="M 1117.396031 512.964962 
L 1231.892519 512.964962 
L 1237.003969 487.40771 
L 1231.892519 461.850458 
L 1117.396031 461.850458 
L 1122.507481 487.40771 
z
" style="fill:none;stroke:#ff0000;stroke-dasharray:4.489333,1.941333;stroke-dashoffset:0;stroke-linejoin:miter;stroke-width:1.213333;"/>
   </g>
   <g id="patch_65">
    <path clip-path="url(#p73e7e75de2)" d="M 254.583206 456.739008 
L 377.258015 456.739008 
L 382.369466 426.070305 
L 377.258015 395.401603 
L 254.583206 395.401603 
L 259.694656 426.070305 
z
" style="fill:none;stroke:#000000;stroke-linejoin:miter;stroke-width:1.3;"/>
   </g>
   <g id="patch_66">
    <path clip-path="url(#p73e7e75de2)" d="M 622.607634 456.739008 
L 745.282443 456.739008 
L 750.393893 426.070305 
L 745.282443 395.401603 
L 622.607634 395.401603 
L 627.719084 426.070305 
z
" style="fill:none;stroke:#ff0000;stroke-linejoin:miter;stroke-width:1.3;"/>
   </g>
   <g id="patch_67">
    <path clip-path="url(#p73e7e75de2)" d="M 254.583206 395.401603 
L 377.258015 395.401603 
L 382.369466 364.732901 
L 377.258015 334.064198 
L 254.583206 334.064198 
L 259.694656 364.732901 
z
" style="fill:none;stroke:#000000;stroke-dasharray:4.81,2.08;stroke-dashoffset:0;stroke-linejoin:miter;stroke-width:1.3;"/>
   </g>
   <g id="patch_68">
    <path clip-path="url(#p73e7e75de2)" d="M 745.282443 395.401603 
L 867.957252 395.401603 
L 873.068702 364.732901 
L 867.957252 334.064198 
L 745.282443 334.064198 
L 750.393893 364.732901 
z
" style="fill:none;stroke:#000000;stroke-dasharray:4.81,2.08;stroke-dashoffset:0;stroke-linejoin:miter;stroke-width:1.3;"/>
   </g>
   <g id="patch_69">
    <path clip-path="url(#p73e7e75de2)" d="M 622.607634 334.064198 
L 745.282443 334.064198 
L 750.393893 303.395496 
L 745.282443 272.726794 
L 622.607634 272.726794 
L 627.719084 303.395496 
z
" style="fill:none;stroke:#ff0000;stroke-linejoin:miter;stroke-width:1.3;"/>
   </g>
   <g id="patch_70">
    <path clip-path="url(#p73e7e75de2)" d="M 745.282443 272.726794 
L 867.957252 272.726794 
L 873.068702 242.058092 
L 867.957252 211.389389 
L 745.282443 211.389389 
L 750.393893 242.058092 
z
" style="fill:none;stroke:#000000;stroke-dasharray:4.81,2.08;stroke-dashoffset:0;stroke-linejoin:miter;stroke-width:1.3;"/>
   </g>
   <g id="text_13">
    <!-- A -->
    <g transform="translate(262.761527 488.634458)scale(0.09 -0.09)">
     <defs>
      <path d="M 34.1875 63.1875 
L 20.796875 26.90625 
L 47.609375 26.90625 
z
M 28.609375 72.90625 
L 39.796875 72.90625 
L 67.578125 0 
L 57.328125 0 
L 50.6875 18.703125 
L 17.828125 18.703125 
L 11.1875 0 
L 0.78125 0 
z
" id="DejaVuSans-65"/>
     </defs>
     <use xlink:href="#DejaVuSans-65"/>
    </g>
   </g>
   <g id="text_14">
    <!-- B -->
    <g transform="translate(389.525496 490.787417)scale(0.0885 -0.0885)">
     <defs>
      <path d="M 19.671875 34.8125 
L 19.671875 8.109375 
L 35.5 8.109375 
Q 43.453125 8.109375 47.28125 11.40625 
Q 51.125 14.703125 51.125 21.484375 
Q 51.125 28.328125 47.28125 31.5625 
Q 43.453125 34.8125 35.5 34.8125 
z
M 19.671875 64.796875 
L 19.671875 42.828125 
L 34.28125 42.828125 
Q 41.5 42.828125 45.03125 45.53125 
Q 48.578125 48.25 48.578125 53.8125 
Q 48.578125 59.328125 45.03125 62.0625 
Q 41.5 64.796875 34.28125 64.796875 
z
M 9.8125 72.90625 
L 35.015625 72.90625 
Q 46.296875 72.90625 52.390625 68.21875 
Q 58.5 63.53125 58.5 54.890625 
Q 58.5 48.1875 55.375 44.234375 
Q 52.25 40.28125 46.1875 39.3125 
Q 53.46875 37.75 57.5 32.78125 
Q 61.53125 27.828125 61.53125 20.40625 
Q 61.53125 10.640625 54.890625 5.3125 
Q 48.25 0 35.984375 0 
L 9.8125 0 
z
" id="DejaVuSans-66"/>
     </defs>
     <use xlink:href="#DejaVuSans-66"/>
    </g>
    <!--  50.0% -->
    <g transform="translate(389.525496 500.697481)scale(0.0885 -0.0885)">
     <defs>
      <path d="M 72.703125 32.078125 
Q 68.453125 32.078125 66.03125 28.46875 
Q 63.625 24.859375 63.625 18.40625 
Q 63.625 12.0625 66.03125 8.421875 
Q 68.453125 4.78125 72.703125 4.78125 
Q 76.859375 4.78125 79.265625 8.421875 
Q 81.6875 12.0625 81.6875 18.40625 
Q 81.6875 24.8125 79.265625 28.4375 
Q 76.859375 32.078125 72.703125 32.078125 
z
M 72.703125 38.28125 
Q 80.421875 38.28125 84.953125 32.90625 
Q 89.5 27.546875 89.5 18.40625 
Q 89.5 9.28125 84.9375 3.921875 
Q 80.375 -1.421875 72.703125 -1.421875 
Q 64.890625 -1.421875 60.34375 3.921875 
Q 55.8125 9.28125 55.8125 18.40625 
Q 55.8125 27.59375 60.375 32.9375 
Q 64.9375 38.28125 72.703125 38.28125 
z
M 22.3125 68.015625 
Q 18.109375 68.015625 15.6875 64.375 
Q 13.28125 60.75 13.28125 54.390625 
Q 13.28125 47.953125 15.671875 44.328125 
Q 18.0625 40.71875 22.3125 40.71875 
Q 26.5625 40.71875 28.96875 44.328125 
Q 31.390625 47.953125 31.390625 54.390625 
Q 31.390625 60.6875 28.953125 64.34375 
Q 26.515625 68.015625 22.3125 68.015625 
z
M 66.40625 74.21875 
L 74.21875 74.21875 
L 28.609375 -1.421875 
L 20.796875 -1.421875 
z
M 22.3125 74.21875 
Q 30.03125 74.21875 34.609375 68.875 
Q 39.203125 63.53125 39.203125 54.390625 
Q 39.203125 45.171875 34.640625 39.84375 
Q 30.078125 34.515625 22.3125 34.515625 
Q 14.546875 34.515625 10.03125 39.859375 
Q 5.515625 45.21875 5.515625 54.390625 
Q 5.515625 63.484375 10.046875 68.84375 
Q 14.59375 74.21875 22.3125 74.21875 
z
" id="DejaVuSans-37"/>
     </defs>
     <use xlink:href="#DejaVuSans-32"/>
     <use x="31.787109" xlink:href="#DejaVuSans-53"/>
     <use x="95.410156" xlink:href="#DejaVuSans-48"/>
     <use x="159.033203" xlink:href="#DejaVuSans-46"/>
     <use x="190.820312" xlink:href="#DejaVuSans-48"/>
     <use x="254.443359" xlink:href="#DejaVuSans-37"/>
    </g>
   </g>
   <g id="text_15">
    <!-- B -->
    <g transform="translate(510.155725 490.787417)scale(0.0885 -0.0885)">
     <use xlink:href="#DejaVuSans-66"/>
    </g>
    <!--  50.0% -->
    <g transform="translate(510.155725 500.697481)scale(0.0885 -0.0885)">
     <use xlink:href="#DejaVuSans-32"/>
     <use x="31.787109" xlink:href="#DejaVuSans-53"/>
     <use x="95.410156" xlink:href="#DejaVuSans-48"/>
     <use x="159.033203" xlink:href="#DejaVuSans-46"/>
     <use x="190.820312" xlink:href="#DejaVuSans-48"/>
     <use x="254.443359" xlink:href="#DejaVuSans-37"/>
    </g>
   </g>
   <g id="text_16">
    <!-- E -->
    <g transform="translate(630.785954 490.787417)scale(0.0885 -0.0885)">
     <defs>
      <path d="M 9.8125 72.90625 
L 55.90625 72.90625 
L 55.90625 64.59375 
L 19.671875 64.59375 
L 19.671875 43.015625 
L 54.390625 43.015625 
L 54.390625 34.71875 
L 19.671875 34.71875 
L 19.671875 8.296875 
L 56.78125 8.296875 
L 56.78125 0 
L 9.8125 0 
z
" id="DejaVuSans-69"/>
     </defs>
     <use xlink:href="#DejaVuSans-69"/>
    </g>
    <!--  50.0% -->
    <g transform="translate(630.785954 500.697481)scale(0.0885 -0.0885)">
     <use xlink:href="#DejaVuSans-32"/>
     <use x="31.787109" xlink:href="#DejaVuSans-53"/>
     <use x="95.410156" xlink:href="#DejaVuSans-48"/>
     <use x="159.033203" xlink:href="#DejaVuSans-46"/>
     <use x="190.820312" xlink:href="#DejaVuSans-48"/>
     <use x="254.443359" xlink:href="#DejaVuSans-37"/>
    </g>
   </g>
   <g id="text_17">
    <!-- E -->
    <g transform="translate(751.416183 490.787417)scale(0.0885 -0.0885)">
     <use xlink:href="#DejaVuSans-69"/>
    </g>
    <!--  50.0% -->
    <g transform="translate(751.416183 500.697481)scale(0.0885 -0.0885)">
     <use xlink:href="#DejaVuSans-32"/>
     <use x="31.787109" xlink:href="#DejaVuSans-53"/>
     <use x="95.410156" xlink:href="#DejaVuSans-48"/>
     <use x="159.033203" xlink:href="#DejaVuSans-46"/>
     <use x="190.820312" xlink:href="#DejaVuSans-48"/>
     <use x="254.443359" xlink:href="#DejaVuSans-37"/>
    </g>
   </g>
   <g id="text_18">
    <!-- C -->
    <g transform="translate(876.135573 488.634458)scale(0.09 -0.09)">
     <defs>
      <path d="M 64.40625 67.28125 
L 64.40625 56.890625 
Q 59.421875 61.53125 53.78125 63.8125 
Q 48.140625 66.109375 41.796875 66.109375 
Q 29.296875 66.109375 22.65625 58.46875 
Q 16.015625 50.828125 16.015625 36.375 
Q 16.015625 21.96875 22.65625 14.328125 
Q 29.296875 6.6875 41.796875 6.6875 
Q 48.140625 6.6875 53.78125 8.984375 
Q 59.421875 11.28125 64.40625 15.921875 
L 64.40625 5.609375 
Q 59.234375 2.09375 53.4375 0.328125 
Q 47.65625 -1.421875 41.21875 -1.421875 
Q 24.65625 -1.421875 15.125 8.703125 
Q 5.609375 18.84375 5.609375 36.375 
Q 5.609375 53.953125 15.125 64.078125 
Q 24.65625 74.21875 41.21875 74.21875 
Q 47.75 74.21875 53.53125 72.484375 
Q 59.328125 70.75 64.40625 67.28125 
z
" id="DejaVuSans-67"/>
     </defs>
     <use xlink:href="#DejaVuSans-67"/>
    </g>
   </g>
   <g id="text_19">
    <!-- D -->
    <g transform="translate(998.810382 488.634458)scale(0.09 -0.09)">
     <defs>
      <path d="M 19.671875 64.796875 
L 19.671875 8.109375 
L 31.59375 8.109375 
Q 46.6875 8.109375 53.6875 14.9375 
Q 60.6875 21.78125 60.6875 36.53125 
Q 60.6875 51.171875 53.6875 57.984375 
Q 46.6875 64.796875 31.59375 64.796875 
z
M 9.8125 72.90625 
L 30.078125 72.90625 
Q 51.265625 72.90625 61.171875 64.09375 
Q 71.09375 55.28125 71.09375 36.53125 
Q 71.09375 17.671875 61.125 8.828125 
Q 51.171875 0 30.078125 0 
L 9.8125 0 
z
" id="DejaVuSans-68"/>
     </defs>
     <use xlink:href="#DejaVuSans-68"/>
    </g>
   </g>
   <g id="text_20">
    <!-- E -->
    <g transform="translate(1125.574351 490.677944)scale(0.084 -0.084)">
     <use xlink:href="#DejaVuSans-69"/>
    </g>
    <!--  50.0% -->
    <g transform="translate(1125.574351 500.084107)scale(0.084 -0.084)">
     <use xlink:href="#DejaVuSans-32"/>
     <use x="31.787109" xlink:href="#DejaVuSans-53"/>
     <use x="95.410156" xlink:href="#DejaVuSans-48"/>
     <use x="159.033203" xlink:href="#DejaVuSans-46"/>
     <use x="190.820312" xlink:href="#DejaVuSans-48"/>
     <use x="254.443359" xlink:href="#DejaVuSans-37"/>
    </g>
   </g>
   <g id="text_21">
    <!-- A -->
    <g transform="translate(262.761527 427.297053)scale(0.09 -0.09)">
     <use xlink:href="#DejaVuSans-65"/>
    </g>
   </g>
   <g id="text_22">
    <!-- G -->
    <g transform="translate(385.436336 427.297053)scale(0.09 -0.09)">
     <defs>
      <path d="M 59.515625 10.40625 
L 59.515625 29.984375 
L 43.40625 29.984375 
L 43.40625 38.09375 
L 69.28125 38.09375 
L 69.28125 6.78125 
Q 63.578125 2.734375 56.6875 0.65625 
Q 49.8125 -1.421875 42 -1.421875 
Q 24.90625 -1.421875 15.25 8.5625 
Q 5.609375 18.5625 5.609375 36.375 
Q 5.609375 54.25 15.25 64.234375 
Q 24.90625 74.21875 42 74.21875 
Q 49.125 74.21875 55.546875 72.453125 
Q 61.96875 70.703125 67.390625 67.28125 
L 67.390625 56.78125 
Q 61.921875 61.421875 55.765625 63.765625 
Q 49.609375 66.109375 42.828125 66.109375 
Q 29.4375 66.109375 22.71875 58.640625 
Q 16.015625 51.171875 16.015625 36.375 
Q 16.015625 21.625 22.71875 14.15625 
Q 29.4375 6.6875 42.828125 6.6875 
Q 48.046875 6.6875 52.140625 7.59375 
Q 56.25 8.5 59.515625 10.40625 
z
" id="DejaVuSans-71"/>
     </defs>
     <use xlink:href="#DejaVuSans-71"/>
    </g>
   </g>
   <g id="text_23">
    <!-- H -->
    <g transform="translate(508.111145 427.297053)scale(0.09 -0.09)">
     <defs>
      <path d="M 9.8125 72.90625 
L 19.671875 72.90625 
L 19.671875 43.015625 
L 55.515625 43.015625 
L 55.515625 72.90625 
L 65.375 72.90625 
L 65.375 0 
L 55.515625 0 
L 55.515625 34.71875 
L 19.671875 34.71875 
L 19.671875 0 
L 9.8125 0 
z
" id="DejaVuSans-72"/>
     </defs>
     <use xlink:href="#DejaVuSans-72"/>
    </g>
   </g>
   <g id="text_24">
    <!-- E -->
    <g transform="translate(630.785954 427.297053)scale(0.09 -0.09)">
     <use xlink:href="#DejaVuSans-69"/>
    </g>
   </g>
   <g id="text_25">
    <!-- A -->
    <g transform="translate(262.761527 365.959649)scale(0.09 -0.09)">
     <use xlink:href="#DejaVuSans-65"/>
    </g>
   </g>
   <g id="text_26">
    <!-- G -->
    <g transform="translate(508.111145 365.959649)scale(0.09 -0.09)">
     <use xlink:href="#DejaVuSans-71"/>
    </g>
   </g>
   <g id="text_27">
    <!-- H -->
    <g transform="translate(630.785954 365.959649)scale(0.09 -0.09)">
     <use xlink:href="#DejaVuSans-72"/>
    </g>
   </g>
   <g id="text_28">
    <!-- E -->
    <g transform="translate(753.460763 365.959649)scale(0.09 -0.09)">
     <use xlink:href="#DejaVuSans-69"/>
    </g>
   </g>
   <g id="text_29">
    <!-- I -->
    <g transform="translate(508.111145 304.622244)scale(0.09 -0.09)">
     <defs>
      <path d="M 9.8125 72.90625 
L 19.671875 72.90625 
L 19.671875 0 
L 9.8125 0 
z
" id="DejaVuSans-73"/>
     </defs>
     <use xlink:href="#DejaVuSans-73"/>
    </g>
   </g>
   <g id="text_30">
    <!-- E -->
    <g transform="translate(630.785954 304.622244)scale(0.09 -0.09)">
     <use xlink:href="#DejaVuSans-69"/>
    </g>
   </g>
   <g id="text_31">
    <!-- J -->
    <g transform="translate(757.549924 306.665731)scale(0.084 -0.084)">
     <defs>
      <path d="M 9.8125 72.90625 
L 19.671875 72.90625 
L 19.671875 5.078125 
Q 19.671875 -8.109375 14.671875 -14.0625 
Q 9.671875 -20.015625 -1.421875 -20.015625 
L -5.171875 -20.015625 
L -5.171875 -11.71875 
L -2.09375 -11.71875 
Q 4.4375 -11.71875 7.125 -8.046875 
Q 9.8125 -4.390625 9.8125 5.078125 
z
" id="DejaVuSans-74"/>
     </defs>
     <use xlink:href="#DejaVuSans-74"/>
    </g>
    <!--  50.0% -->
    <g transform="translate(757.549924 316.071893)scale(0.084 -0.084)">
     <use xlink:href="#DejaVuSans-32"/>
     <use x="31.787109" xlink:href="#DejaVuSans-53"/>
     <use x="95.410156" xlink:href="#DejaVuSans-48"/>
     <use x="159.033203" xlink:href="#DejaVuSans-46"/>
     <use x="190.820312" xlink:href="#DejaVuSans-48"/>
     <use x="254.443359" xlink:href="#DejaVuSans-37"/>
    </g>
   </g>
   <g id="text_32">
    <!-- I -->
    <g transform="translate(630.785954 243.28484)scale(0.09 -0.09)">
     <use xlink:href="#DejaVuSans-73"/>
    </g>
   </g>
   <g id="text_33">
    <!-- E -->
    <g transform="translate(753.460763 243.28484)scale(0.09 -0.09)">
     <use xlink:href="#DejaVuSans-69"/>
    </g>
   </g>
  </g>
 </g>
 <defs>
  <clipPath id="p73e7e75de2">
   <rect height="343.489466" width="1071.36" x="172.8" y="182.765267"/>
  </clipPath>
 </defs>
 <defs>
  <pattern height="72" id="h2f1eeab7a4" patternUnits="userSpaceOnUse" width="72" x="0" y="0">
   <rect fill="#8ccd8c" height="73" width="73" x="0" y="0"/>
   <path d="M -36 36 
L 36 -36 
M -32 40 
L 40 -32 
M -28 44 
L 44 -28 
M -24 48 
L 48 -24 
M -20 52 
L 52 -20 
M -16 56 
L 56 -16 
M -12 60 
L 60 -12 
M -8 64 
L 64 -8 
M -4 68 
L 68 -4 
M 0 72 
L 72 0 
M 4 76 
L 76 4 
M 8 80 
L 80 8 
M 12 84 
L 84 12 
M 16 88 
L 88 16 
M 20 92 
L 92 20 
M 24 96 
L 96 24 
M 28 100 
L 100 28 
M 32 104 
L 104 32 
M 36 108 
L 108 36 
" style="fill:#8ccd8c;stroke:#8ccd8c;stroke-linecap:butt;stroke-linejoin:miter;stroke-opacity:0.8;stroke-width:1.0;"/>
  </pattern>
  <pattern height="72" id="hd96723ae9f" patternUnits="userSpaceOnUse" width="72" x="0" y="0">
   <rect fill="#5f90cb" height="73" width="73" x="0" y="0"/>
   <path d="M -36 36 
L 36 -36 
M -32 40 
L 40 -32 
M -28 44 
L 44 -28 
M -24 48 
L 48 -24 
M -20 52 
L 52 -20 
M -16 56 
L 56 -16 
M -12 60 
L 60 -12 
M -8 64 
L 64 -8 
M -4 68 
L 68 -4 
M 0 72 
L 72 0 
M 4 76 
L 76 4 
M 8 80 
L 80 8 
M 12 84 
L 84 12 
M 16 88 
L 88 16 
M 20 92 
L 92 20 
M 24 96 
L 96 24 
M 28 100 
L 100 28 
M 32 104 
L 104 32 
M 36 108 
L 108 36 
" style="fill:#5f90cb;stroke:#5f90cb;stroke-linecap:butt;stroke-linejoin:miter;stroke-opacity:0.8;stroke-width:1.0;"/>
  </pattern>
 </defs>
</svg>
